<svg xmlns="http://www.w3.org/2000/svg" width="32" height="32" viewBox="0 0 32 32">
    <rect id="Rectangle_41" data-name="Rectangle 41" width="32" height="32" rx="5" fill="#ff83a1" />
    <g id="COCO_Bold_Wallet" data-name="COCO/Bold/Wallet" transform="translate(-3080 -407)">
        <path id="Vector"
            d="M3096,432a14.107,14.107,0,0,1-3.031-.33l-.418-.092a7.51,7.51,0,0,1-5.675-5.509,12.74,12.74,0,0,1,0-6.138,7.51,7.51,0,0,1,5.675-5.509l.418-.092a14.077,14.077,0,0,1,6.061,0l.418.092a7.512,7.512,0,0,1,5.675,5.509,12.74,12.74,0,0,1,0,6.138,7.512,7.512,0,0,1-5.675,5.509l-.418.092A14.1,14.1,0,0,1,3096,432Zm6.836-11.267a5.356,5.356,0,0,0-.893.075l-.074.013a2.5,2.5,0,0,0-2,1.664,1.751,1.751,0,0,0,0,1.031,2.5,2.5,0,0,0,2,1.664l.074.013a5.313,5.313,0,0,0,.885.074c.084,0,.169,0,.252-.006a.858.858,0,0,0,.8-.754,11.119,11.119,0,0,0,0-3.013.86.86,0,0,0-.8-.755C3103,420.735,3102.917,420.733,3102.836,420.733Zm-10.88-1.362a.6.6,0,1,0,0,1.21h4.05a.6.6,0,1,0,0-1.21Z"
            fill="#fff" />
    </g>
</svg>