<svg xmlns="http://www.w3.org/2000/svg" width="32" height="32" viewBox="0 0 32 32">
    <g id="Add_Contact" data-name="Add Contact" transform="translate(-336 -1141)">
        <rect id="Rectangle_50" data-name="Rectangle 50" width="32" height="32" rx="5" transform="translate(336 1141)"
            fill="#f7f6ff" />
        <g id="Ad_Contact" data-name="Ad Contact">
            <path id="Vector"
                d="M354.5,1166h-9.119a2.386,2.386,0,0,1-2.383-2.383,4.94,4.94,0,0,1,4.18-4.9l.184-.029a16.378,16.378,0,0,1,5.16,0l.183.029a4.94,4.94,0,0,1,4.181,4.9A2.386,2.386,0,0,1,354.5,1166Zm3.669-6.171a.772.772,0,0,1-.771-.771v-1.285h-1.286a.772.772,0,0,1,0-1.543H357.4v-1.285a.771.771,0,1,1,1.543,0v1.285h1.286a.772.772,0,0,1,0,1.543h-1.286v1.285A.772.772,0,0,1,358.171,1159.828Zm-8.231-3.088a4.37,4.37,0,1,1,4.37-4.37A4.375,4.375,0,0,1,349.94,1156.74Z"
                fill="#6f7081" />
        </g>
    </g>
</svg>