<svg xmlns="http://www.w3.org/2000/svg" width="32" height="32" viewBox="0 0 32 32">
  <g id="Group_3" data-name="Group 3" transform="translate(-2251 -482)">
    <rect id="Rectangle_24" data-name="Rectangle 24" width="32" height="32" rx="5" transform="translate(2251 482)" fill="#ff83a1"/>
    <g id="COCO_Bold_Card" data-name="COCO/Bold/Card">
      <path id="Vector" d="M2267.5,507a14.072,14.072,0,0,1-3.031-.331l-.417-.092a7.51,7.51,0,0,1-5.675-5.509,12.627,12.627,0,0,1-.24-4.924c.531-.408,18.065-.412,18.242-.412a8.754,8.754,0,0,1,.245,5.336,7.509,7.509,0,0,1-5.675,5.509l-.418.092A14.077,14.077,0,0,1,2267.5,507Zm-5.065-9.76a.755.755,0,0,0,0,1.51h4.061a.755.755,0,0,0,0-1.51Zm13.264-3.019h0c-.164,0-16.4-.01-16.835-.656a7.513,7.513,0,0,1,5.189-4.143l.417-.093a14.079,14.079,0,0,1,6.062,0l.418.093a6.36,6.36,0,0,1,3.038,1.562,5.949,5.949,0,0,1,1.712,3.235h0l0,0a1.051,1.051,0,0,1,.334-.151.026.026,0,0,1,.013,0,.008.008,0,0,1,0,.007.45.45,0,0,1-.351.142Z" fill="#fff"/>
    </g>
  </g>
</svg>
