<svg xmlns="http://www.w3.org/2000/svg" width="40" height="40" viewBox="0 0 40 40">
    <g id="_026-creative-cloud_1" data-name="026-creative-cloud 1" transform="translate(-1398 -563)">
        <circle id="Vector" cx="20" cy="20" r="20" transform="translate(1398 563)" fill="#f9dfdc" />
        <path id="Vector-2" data-name="Vector"
            d="M1422.54,591.5a8.5,8.5,0,1,1,8.5-8.5A8.509,8.509,0,0,1,1422.54,591.5Zm0-15.62a7.12,7.12,0,1,0,7.12,7.12A7.128,7.128,0,0,0,1422.54,575.88Z"
            fill="#be2727" />
        <path id="Vector-3" data-name="Vector"
            d="M1411.245,591.653a6.439,6.439,0,1,1,4.553-10.991c1.042,1.042,3.045,3.29,3.13,3.385l-1.034.92c-.021-.023-2.061-2.313-3.075-3.327a5.054,5.054,0,1,0,.871,5.983l1.216.661A6.439,6.439,0,0,1,1411.245,591.653Z"
            fill="#be2727" />
        <path id="Vector-4" data-name="Vector"
            d="M1422.541,591.5a8.483,8.483,0,0,1-6.546-3.076c-.163-.2-2.773-3.189-3.765-4.325l1.043-.91c.146.167,3.579,4.1,3.787,4.352a7.118,7.118,0,0,0,12.6-4.542h1.384A8.512,8.512,0,0,1,1422.541,591.5Z"
            fill="#be2727" />
    </g>
</svg>