<svg xmlns="http://www.w3.org/2000/svg" width="42" height="42" viewBox="0 0 42 42">
    <g id="Group_15" data-name="Group 15" transform="translate(-1369 -293)">
        <rect id="Rectangle_14" data-name="Rectangle 14" width="42" height="42" rx="15" transform="translate(1369 293)"
            fill="#eeebff" />
        <g id="COCO_Bold_Bag_-_2" data-name="COCO/Bold/‌Bag - 2">
            <path id="Vector"
                d="M1390,326a19.61,19.61,0,0,1-4.505-.524,9.605,9.605,0,0,1-4.548-2.515,9.242,9.242,0,0,1-2.512-4.477,16.661,16.661,0,0,1,.5-9.29l.156-.445a9.8,9.8,0,0,1,7.522-6.357l.958-.174a13.537,13.537,0,0,1,4.855,0l.958.174a9.808,9.808,0,0,1,7.523,6.357l.155.445a16.666,16.666,0,0,1,.5,9.289,9.248,9.248,0,0,1-2.513,4.478,9.6,9.6,0,0,1-4.549,2.515A19.61,19.61,0,0,1,1390,326Zm-3.939-19.545a.843.843,0,0,0-.778.506l-.284.66a6.346,6.346,0,0,0-.376,3.857,5.184,5.184,0,0,0,4.223,4.007l.157.027a5.808,5.808,0,0,0,2,0l.157-.027a5.187,5.187,0,0,0,4.224-4.007,6.348,6.348,0,0,0-.377-3.857l-.284-.66a.842.842,0,0,0-.778-.506.858.858,0,0,0-.327.065.828.828,0,0,0-.457.455.8.8,0,0,0,.006.626l.283.659a4.74,4.74,0,0,1,.282,2.879,3.522,3.522,0,0,1-2.868,2.721l-.156.027a4.036,4.036,0,0,1-1.4,0l-.157-.027a3.522,3.522,0,0,1-2.868-2.721,4.74,4.74,0,0,1,.282-2.879l.284-.659a.805.805,0,0,0,.005-.627.828.828,0,0,0-.457-.454A.859.859,0,0,0,1386.06,306.455Z"
                fill="#676097" />
        </g>
    </g>
</svg>