<svg xmlns="http://www.w3.org/2000/svg" width="33.77" height="32.53" viewBox="0 0 33.77 32.53">
    <g id="Group_5" data-name="Group 5" transform="translate(-1805 -796.47)">
        <rect id="Rectangle_23" data-name="Rectangle 23" width="33.77" height="32.53" rx="5"
            transform="translate(1805 796.47)" fill="#ff83a1" />
        <path id="Vector"
            d="M1822,820.868a12.437,12.437,0,0,1-1.969-.157l-.681-.11a6.009,6.009,0,0,1-4.622-3.7l-.085-.214a9.13,9.13,0,0,1-.342-5.715,5.535,5.535,0,0,1,3.013-3.607v-.213a4.584,4.584,0,0,1,3.458-4.427,4.9,4.9,0,0,1,2.453,0,4.585,4.585,0,0,1,3.459,4.427v.213a5.536,5.536,0,0,1,3.013,3.607,9.144,9.144,0,0,1-.342,5.715l-.085.214a6.012,6.012,0,0,1-4.622,3.7l-.68.11A12.438,12.438,0,0,1,1822,820.868Zm-.01-8.288a.57.57,0,0,0-.57.57v1.91a.571.571,0,0,0,.57.571h.021a.571.571,0,0,0,.57-.571v-1.91a.57.57,0,0,0-.57-.57ZM1822,804a3.454,3.454,0,0,0-.862.109,3.154,3.154,0,0,0-2.368,2.8l.039-.008a15.562,15.562,0,0,1,6.383,0l.04.008a3.156,3.156,0,0,0-2.369-2.8A3.454,3.454,0,0,0,1822,804Z"
            fill="#fff" />
    </g>
</svg>