<svg xmlns="http://www.w3.org/2000/svg" width="32" height="28.195" viewBox="0 0 32 28.195">
    <g id="_082-bus-2" data-name="082-bus-2" transform="translate(-2067 -1768.905)">
        <rect id="Vector" width="2.15" height="1.5" transform="translate(2082.67 1772.1)" fill="#fcd462" />
        <g id="Group">
            <path id="Vector-2" data-name="Vector"
                d="M2074.366,1783.464h-3.334a2.623,2.623,0,0,1-2.62-2.62v-6.857a2.623,2.623,0,0,1,2.62-2.62h3.334v12.1Zm-3.334-11.085a1.61,1.61,0,0,0-1.608,1.608v6.857a1.61,1.61,0,0,0,1.608,1.608h2.323v-10.074Z"
                fill="#f6c358" />
            <path id="Vector-3" data-name="Vector"
                d="M2070.177,1774.155h-2.52a.658.658,0,0,0-.658.658v5.205a.658.658,0,0,0,.658.658h2.52a.658.658,0,0,0,.658-.658v-5.205A.658.658,0,0,0,2070.177,1774.155Z"
                fill="#f6c358" />
            <path id="Vector-4" data-name="Vector"
                d="M2094.968,1783.464h-3.334v-12.1h3.334a2.623,2.623,0,0,1,2.62,2.62v6.857A2.623,2.623,0,0,1,2094.968,1783.464Zm-2.323-11.085v10.074h2.323a1.61,1.61,0,0,0,1.608-1.608v-6.857a1.61,1.61,0,0,0-1.608-1.608Z"
                fill="#f6c358" />
            <path id="Vector-5" data-name="Vector"
                d="M2098.342,1774.155h-2.52a.658.658,0,0,0-.657.658v5.205a.658.658,0,0,0,.657.658h2.52a.658.658,0,0,0,.658-.658v-5.205A.658.658,0,0,0,2098.342,1774.155Z"
                fill="#f6c358" />
        </g>
        <g id="Group-2" data-name="Group">
            <path id="Vector-6" data-name="Vector"
                d="M0,0H4.32A1.32,1.32,0,0,1,5.64,1.32V2.44A1.32,1.32,0,0,1,4.32,3.76H0a0,0,0,0,1,0,0V0A0,0,0,0,1,0,0Z"
                transform="translate(2072.7 1793.34)" fill="#64798a" />
            <path id="Vector-7" data-name="Vector"
                d="M0,0H4.32A1.32,1.32,0,0,1,5.64,1.32V2.44A1.32,1.32,0,0,1,4.32,3.76H0a0,0,0,0,1,0,0V0A0,0,0,0,1,0,0Z"
                transform="translate(2087.26 1793.34)" fill="#64798a" />
        </g>
        <path id="Vector-8" data-name="Vector"
            d="M2090.471,1768.9h-14.366a4.49,4.49,0,0,0-4.49,4.49v20.882H2094.3v-21.54A3.832,3.832,0,0,0,2090.471,1768.9Z"
            fill="#e56353" />
        <rect id="Vector-9" data-name="Vector" width="17.51" height="12.89" transform="translate(2074.27 1773.66)"
            fill="#d5d6db" />
        <path id="Vector-10" data-name="Vector" d="M2074.271,1786.545v-12.887h17.515Z" fill="#e1e6e9" />
        <path id="Vector-11" data-name="Vector"
            d="M2079.276,1781.013h-2.849a.646.646,0,0,0-.646.646v4.886h4.141v-4.886A.646.646,0,0,0,2079.276,1781.013Z"
            fill="#27a2db" />
        <rect id="Vector-12" data-name="Vector" width="2.81" height="1.75" transform="translate(2076.38 1782.03)"
            fill="#fcd462" />
        <path id="Vector-13" data-name="Vector"
            d="M2089.076,1781.013h-2.849a.647.647,0,0,0-.646.646v4.886h4.141v-4.886A.646.646,0,0,0,2089.076,1781.013Z"
            fill="#27a2db" />
        <rect id="Vector-14" data-name="Vector" width="2.81" height="1.75" transform="translate(2086.18 1782.03)"
            fill="#fcd462" />
        <g id="Group-3" data-name="Group">
            <path id="Vector-15" data-name="Vector"
                d="M2087.652,1785.945h-.133c-.738-.021-1.526-.21-1.526-.679,0-.5.894-.68,1.66-.68s1.659.178,1.659.68S2088.417,1785.945,2087.652,1785.945Zm0-.853a2.773,2.773,0,0,0-1.083.174,2.61,2.61,0,0,0,.964.173l.119,0a.555.555,0,1,0,0-.348Z"
                fill="#3a556a" />
            <rect id="Vector-16" data-name="Vector" width="0.51" height="1.47" transform="translate(2087.4 1785.08)"
                fill="#3a556a" />
        </g>
        <rect id="Vector-17" data-name="Vector" width="22.69" height="5.88" transform="translate(2071.61 1788.4)"
            fill="#f6c358" />
        <rect id="Vector-18" data-name="Vector" width="8.49" height="5.88" transform="translate(2079.19 1788.4)"
            fill="#3a556a" />
        <g id="Group-4" data-name="Group">
            <rect id="Vector-19" data-name="Vector" width="8.49" height="1.38" transform="translate(2079.19 1789.38)"
                fill="#64798a" />
            <rect id="Vector-20" data-name="Vector" width="8.49" height="1.38" transform="translate(2079.19 1791.92)"
                fill="#64798a" />
        </g>
        <g id="Group-5" data-name="Group">
            <circle id="Vector-21" data-name="Vector" cx="1.01" cy="1.01" r="1.01" transform="translate(2073.4 1791.55)"
                fill="#dc8744" />
            <circle id="Vector-22" data-name="Vector" cx="1.01" cy="1.01" r="1.01"
                transform="translate(2090.64 1791.55)" fill="#dc8744" />
        </g>
        <g id="Group-6" data-name="Group">
            <path id="Vector-23" data-name="Vector" d="M2072.7,1788.514s3.73.19,4.3.948v1.591h-4.3Z" fill="#d5d6db" />
            <path id="Vector-24" data-name="Vector" d="M2093.295,1788.514s-3.73.19-4.3.948v1.591h4.3Z" fill="#d5d6db" />
        </g>
    </g>
</svg>