<svg xmlns="http://www.w3.org/2000/svg" width="24" height="20.769" viewBox="0 0 24 20.769">
    <g id="_002-shopping_cart" data-name="002-shopping cart" transform="translate(-1812 -1614.594)">
        <path id="Vector"
            d="M1831.385,1631.209h-3.692a.693.693,0,0,0-.693.692v.923a2.538,2.538,0,1,0,5.077,0v-.923a.692.692,0,0,0-.692-.692Z"
            fill="#3440db" />
        <path id="Vector-2" data-name="Vector"
            d="M1833.923,1617.363h-18.231a.692.692,0,0,0-.683.806l1.846,11.077a.692.692,0,0,0,.683.578h16.385a2.079,2.079,0,0,0,2.077-2.077v-8.308a2.079,2.079,0,0,0-2.077-2.077Z"
            fill="#fdd835" />
        <path id="Vector-3" data-name="Vector"
            d="M1831.846,1627.055a.693.693,0,0,1-.692-.692v-.692h-2.308v.692a.692.692,0,1,1-1.384,0v-.692h-2.308v.692a.693.693,0,0,1-1.385,0v-.692h-2.308v.692a.692.692,0,1,1-1.384,0v-.692h-.693a.693.693,0,0,1,0-1.385h.693V1622.9h-.693a.693.693,0,0,1,0-1.385h.693v-.692a.692.692,0,1,1,1.384,0v.692h2.308v-.692a.693.693,0,0,1,1.385,0v.692h2.308v-.692a.692.692,0,1,1,1.384,0v.692h2.308v-.692a.692.692,0,1,1,1.384,0v.692h.693a.693.693,0,0,1,0,1.385h-.693v1.384h.693a.693.693,0,0,1,0,1.385h-.693v.692A.693.693,0,0,1,1831.846,1627.055Zm-3-4.155v1.381h2.31V1622.9Zm-3.7,0v1.381h2.31V1622.9Zm-3.69,0v1.381h2.31V1622.9Z"
            fill="#ffa000" />
        <path id="Vector-4" data-name="Vector"
            d="M1822.154,1631.209h-3.692a.692.692,0,0,0-.692.692v.923a2.538,2.538,0,1,0,5.077,0v-.923a.692.692,0,0,0-.692-.692Z"
            fill="#5f69e3" />
        <path id="Vector-5" data-name="Vector"
            d="M1834.154,1632.594h-18a2.077,2.077,0,1,1,0-4.154h.567l-1.981-11.883a.69.69,0,0,0-.683-.578h-1.365a.692.692,0,1,1,0-1.385h1.365a2.07,2.07,0,0,1,2.049,1.735l2.115,12.689a.692.692,0,0,1-.683.806h-1.384a.692.692,0,1,0,0,1.385h18a.692.692,0,0,1,0,1.385Z"
            fill="#ff3c7d" />
        <path id="Vector-6" data-name="Vector"
            d="M1833.923,1617.363h-7.615v12.461h7.615a2.079,2.079,0,0,0,2.077-2.077v-8.308a2.079,2.079,0,0,0-2.077-2.077Z"
            fill="#fbc02d" />
        <path id="Vector-7" data-name="Vector"
            d="M1831.846,1627.055a.693.693,0,0,1-.692-.692v-.692h-2.308v.692a.692.692,0,1,1-1.384,0v-.692h-1.155v-1.385h1.155V1622.9h-1.155v-1.385h1.155v-.692a.692.692,0,1,1,1.384,0v.692h2.308v-.692a.692.692,0,1,1,1.384,0v.692h.693a.693.693,0,0,1,0,1.385h-.693v1.384h.693a.693.693,0,0,1,0,1.385h-.693v.692A.693.693,0,0,1,1831.846,1627.055Zm-3-4.155v1.381h2.31V1622.9Z"
            fill="#ee8700" />
        <path id="Vector-8" data-name="Vector" d="M1834.154,1631.209h-7.846v1.385h7.846a.692.692,0,0,0,0-1.385Z"
            fill="#d10050" />
    </g>
</svg>