<svg xmlns="http://www.w3.org/2000/svg" width="33.77" height="32.53" viewBox="0 0 33.77 32.53">
    <g id="Group_4" data-name="Group 4" transform="translate(-1805 -745)">
        <rect id="Rectangle_23" data-name="Rectangle 23" width="33.77" height="32.53" rx="5"
            transform="translate(1805 745)" fill="#676097" />
        <path id="Vector"
            d="M1822,770.3a12.815,12.815,0,0,1-2.97-.35,7.589,7.589,0,0,1-3.653-2.067,7.785,7.785,0,0,1-2.033-3.713,13.509,13.509,0,0,1,0-6.038,7.784,7.784,0,0,1,2.033-3.713,7.59,7.59,0,0,1,3.653-2.066,12.79,12.79,0,0,1,5.94,0,7.59,7.59,0,0,1,3.653,2.066,7.783,7.783,0,0,1,2.033,3.713,13.481,13.481,0,0,1,0,6.038,7.785,7.785,0,0,1-2.033,3.713,7.59,7.59,0,0,1-3.653,2.067A12.805,12.805,0,0,1,1822,770.3Zm0-13.625a3,3,0,0,0-2.967,3.017,3.047,3.047,0,0,0,.968,2.229l-.533,1.668a1.56,1.56,0,0,0,.226,1.409,1.509,1.509,0,0,0,1.23.629h2.151a1.51,1.51,0,0,0,1.23-.629,1.561,1.561,0,0,0,.227-1.41l-.534-1.668a3.044,3.044,0,0,0,.968-2.229A3,3,0,0,0,1822,756.672Zm1.076,7.784h-2.151a.377.377,0,0,1-.308-.157.389.389,0,0,1-.056-.352l.656-2.055a.589.589,0,0,0-.226-.665,1.856,1.856,0,0,1-.81-1.538,1.819,1.819,0,1,1,3.638,0,1.858,1.858,0,0,1-.809,1.538.588.588,0,0,0-.227.665l.657,2.055a.391.391,0,0,1-.057.352A.378.378,0,0,1,1823.075,764.456Z"
            fill="#fff" />
    </g>
</svg>