<svg xmlns="http://www.w3.org/2000/svg" width="50" height="50" viewBox="0 0 50 50">
    <g id="Group_85" data-name="Group 85" transform="translate(-4922 -622)">
        <g id="Group">
            <g id="Group-2" data-name="Group">
                <circle id="Vector" cx="25" cy="25" r="25" transform="translate(4922 622)" fill="#ffcf84" />
            </g>
            <g id="Group-3" data-name="Group">
                <path id="Vector-2" data-name="Vector"
                    d="M4947,627.506a19.5,19.5,0,0,1,0,39,.792.792,0,0,0,0,1.584,21.084,21.084,0,0,0,0-42.168.792.792,0,1,0,0,1.584Z"
                    fill="#fd9909" />
            </g>
            <g id="Group-4" data-name="Group">
                <path id="Vector-3" data-name="Vector"
                    d="M4947,666.506a19.5,19.5,0,1,1,0-39,.792.792,0,1,0,0-1.584,21.084,21.084,0,0,0,0,42.168.792.792,0,0,0,0-1.584Z"
                    fill="#fd9909" />
            </g>
            <path id="Vector-4" data-name="Vector"
                d="M4949.5,667.7a.792.792,0,1,1,1.572-.2l.5,4.075c-.515.1-1.039.176-1.565.24Zm3.769-1.087a.792.792,0,0,1,1.5-.508l1.409,4.152q-.734.29-1.492.535Zm-20.049,1.241,2.2-3.621a.793.793,0,1,1,1.355.823l-2.208,3.63Q4933.878,668.3,4933.219,667.858Zm30.712-9.344a.792.792,0,0,1,.942-1.274l3.559,2.633q-.41.681-.862,1.334Zm-40.69-3.721,4.274-1.924a.792.792,0,1,1,.65,1.445l-4.382,1.973C4923.588,655.8,4923.406,655.3,4923.242,654.794Zm43.184-11.9a.793.793,0,0,1,.588-.953l4.246-1q.191.765.334,1.548l-4.216.994a.792.792,0,0,1-.952-.589Zm-37.182-6.179-3.752-2.454q.4-.681.851-1.335l3.767,2.464a.791.791,0,1,1-.866,1.325Zm1.682-3.316-3.177-2.337q.505-.612,1.052-1.192l3.063,2.252a.792.792,0,0,1-.938,1.276Zm27.935-2.253a.794.794,0,0,1-.128-1.113l2.719-3.426q.646.458,1.263.957l-2.739,3.454a.8.8,0,0,1-1.114.128Zm-3.231-2.324a.793.793,0,0,1-.324-1.072l1.9-3.57q.724.324,1.424.694l-1.932,3.622a.792.792,0,0,1-1.072.326Zm-14.646-1.782-1.121-4q.754-.225,1.531-.4l1.115,3.976a.792.792,0,0,1-1.526.427Z"
                fill="#fd9909" />
        </g>
        <g id="Group-5" data-name="Group">
            <g id="Group-6" data-name="Group">
                <path id="Vector-5" data-name="Vector"
                    d="M4940.851,653.6a10.837,10.837,0,0,0,7.148,2.069c3.224-.221,4.752-1.462,4.691-3.73q-.16-2.769-3.418-3.158c-1.014-.081-2.1-.159-3.286-.265a8.155,8.155,0,0,1-4.992-2.089,6.57,6.57,0,0,1-1.964-4.5,6.707,6.707,0,0,1,1.849-5.349,8.4,8.4,0,0,1,5.779-2.36,13.853,13.853,0,0,1,8.16,2.116l-1.9,3.22a11.217,11.217,0,0,0-6.215-1.564,4.578,4.578,0,0,0-2.829,1.037,3.273,3.273,0,0,0-1.094,2.754,2.761,2.761,0,0,0,.945,1.9,4.92,4.92,0,0,0,2.741,1.065c.665.066,1.61.152,2.8.223a7.634,7.634,0,0,1,5.278,2.212,7.135,7.135,0,0,1,1.9,4.539c.169,4.743-2.605,7.315-8.255,7.71a14.06,14.06,0,0,1-9.63-2.87Z"
                    fill="#fd9909" />
            </g>
            <g id="Group-7" data-name="Group">
                <path id="Vector-6" data-name="Vector" d="M4945.414,631.12l-.847,31.2,1.878.051.847-31.2Z"
                    fill="#fd9909" />
            </g>
            <g id="Group-8" data-name="Group">
                <path id="Vector-7" data-name="Vector" d="M4948.7,631.213l-.847,31.2,1.878.051.847-31.2Z"
                    fill="#fd9909" />
            </g>
        </g>
    </g>
</svg>