<svg xmlns="http://www.w3.org/2000/svg" width="16.154" height="24" viewBox="0 0 16.154 24">
    <g id="_020-backpack" data-name="020-backpack" transform="translate(-1904.937 -1524)">
        <path id="Vector"
            d="M1911.1,1526.373a2.628,2.628,0,0,0-5.244.256v6.717a.692.692,0,0,0,1.3.336,6.679,6.679,0,0,1,3.806-3.131.693.693,0,0,0,.477-.726Z"
            fill="#5f69e3" />
        <path id="Vector-2" data-name="Vector"
            d="M1917.54,1524a2.629,2.629,0,0,0-2.616,2.373l-.337,3.451a.692.692,0,0,0,.478.726,6.713,6.713,0,0,1,3.806,3.131.692.692,0,0,0,1.3-.336v-6.717a2.632,2.632,0,0,0-2.629-2.629Z"
            fill="#3440db" />
        <path id="Vector-3" data-name="Vector"
            d="M1920.081,1533.009a8.077,8.077,0,0,0-15.144,3.914v9a2.079,2.079,0,0,0,2.077,2.077h12a2.079,2.079,0,0,0,2.077-2.077v-9a8.088,8.088,0,0,0-1.01-3.914Z"
            fill="#ff3c7d" />
        <path id="Vector-4" data-name="Vector"
            d="M1918.322,1539v5.539a.693.693,0,0,1-.692.692H1908.4a.693.693,0,0,1-.693-.692V1539a.693.693,0,0,1,.693-.692h9.231a.692.692,0,0,1,.69.639.508.508,0,0,1,0,.053Z"
            fill="#fdd835" />
        <path id="Vector-5" data-name="Vector"
            d="M1913.014,1532.077a2.308,2.308,0,1,0,2.308,2.308,2.31,2.31,0,0,0-2.308-2.308Z" fill="#fdd835" />
        <path id="Vector-6" data-name="Vector"
            d="M1918.322,1539v1.771l-1.718,1.477-.036.029a2.092,2.092,0,0,1-1.246.416h-4.615a2.09,2.09,0,0,1-1.246-.416l-.014-.01-1.74-1.375v-1.764l2.59,2.047a.7.7,0,0,0,.41.134h4.615a.7.7,0,0,0,.4-.128l2.6-2.233a.508.508,0,0,1,0,.053Z"
            fill="#ffa000" />
        <path id="Vector-7" data-name="Vector"
            d="M1920.081,1533.009a8.067,8.067,0,0,0-7.067-4.163V1548h6a2.079,2.079,0,0,0,2.077-2.077v-9a8.088,8.088,0,0,0-1.01-3.914Z"
            fill="#d10050" />
        <path id="Vector-8" data-name="Vector"
            d="M1918.32,1538.947a.692.692,0,0,0-.69-.639h-4.616v6.923h4.616a.693.693,0,0,0,.692-.692V1539A.508.508,0,0,0,1918.32,1538.947Z"
            fill="#fbc02d" />
        <path id="Vector-9" data-name="Vector" d="M1913.014,1532.077v4.615a2.308,2.308,0,1,0,0-4.615Z" fill="#fbc02d" />
        <path id="Vector-10" data-name="Vector"
            d="M1918.32,1538.947l-2.6,2.233a.7.7,0,0,1-.4.128h-2.308v1.385h2.308a2.092,2.092,0,0,0,1.246-.416l.036-.029,1.718-1.477V1539A.508.508,0,0,0,1918.32,1538.947Z"
            fill="#ee8700" />
    </g>
</svg>