<svg xmlns="http://www.w3.org/2000/svg" width="36" height="36" viewBox="0 0 36 36">
    <g id="fiverr-1_1" data-name="fiverr-1 1" transform="translate(-533 -685.21)">
        <circle id="Vector" cx="18" cy="18" r="18" transform="translate(533 685.21)" fill="#00b22d" />
        <g id="Group">
            <path id="Vector-2" data-name="Vector"
                d="M564.73,702.91a1.06,1.06,0,1,1,1.08-1.06A1.071,1.071,0,0,1,564.73,702.91Zm.01-1.84a.782.782,0,1,0,.73.779A.757.757,0,0,0,564.74,701.07Z"
                fill="#fff" />
            <path id="Vector-3" data-name="Vector"
                d="M564.671,702.357h-.315v-1.017h.477a.319.319,0,0,1,.36.333.281.281,0,0,1-.171.27.258.258,0,0,1,.027.063l.188.35H564.9l-.144-.342h-.081v.342Z"
                fill="#fff" />
            <circle id="Vector-4" data-name="Vector" cx="0.81" cy="0.81" r="0.81" transform="translate(541.6 701.07)"
                fill="#fff" />
            <path id="Vector-5" data-name="Vector"
                d="M539,703.492a4.55,4.55,0,0,1,1.209-3.193,4.464,4.464,0,0,1,3.307-1.3,3.835,3.835,0,0,1,4.031,4.151c0,.154-.023.4-.042.6a1.917,1.917,0,0,0-.02.287h-5.5a1.939,1.939,0,0,0,2.015,1.58,4.887,4.887,0,0,0,2.438-.821l1.062,2A6.063,6.063,0,0,1,543.766,708,4.488,4.488,0,0,1,539,703.492Zm3.047-1.053h2.485a1.373,1.373,0,0,0-.375-.966,1.013,1.013,0,0,0-.719-.305A1.45,1.45,0,0,0,542.047,702.439Zm13.875,5.375v-2.092h1.172v-4.058a.344.344,0,0,0-.375-.372h-.813V699.2h2.735c.8,0,1.234.311,1.234,1.1v.45a2.623,2.623,0,0,1-.031.433h.031a2.974,2.974,0,0,1,2.781-2.122,2.172,2.172,0,0,1,.344.031v2.835a3.333,3.333,0,0,0-.593-.047c-1.609,0-2.39,1.022-2.39,2.587v1.255h1.172v2.092Zm-7.7,0v-2.092h1.172v-4.058a.344.344,0,0,0-.375-.372H548.2V699.2h2.733c.8,0,1.235.311,1.235,1.1v.45a2.623,2.623,0,0,1-.031.433h.031a2.944,2.944,0,0,1,2.781-2.122,2.186,2.186,0,0,1,.344.031v2.835a3.332,3.332,0,0,0-.593-.047c-1.61,0-2.391,1.022-2.391,2.587v1.255h1.172v2.092Z"
                fill="#fff" />
        </g>
    </g>
</svg>