<svg xmlns="http://www.w3.org/2000/svg" width="16.667" height="16.667" viewBox="0 0 16.667 16.667">
    <g id="u:sync" transform="translate(-951.666 -249.666)">
        <path id="Vector"
            d="M965.977,266.09a.834.834,0,0,1-.244-.59v-1.475A8.334,8.334,0,0,1,951.666,258a.833.833,0,0,1,1.667,0,6.666,6.666,0,0,0,11.483,4.592h-2a.833.833,0,1,1,0-1.666h3.776a.833.833,0,0,1,.808.824v3.75a.834.834,0,0,1-1.423.59Zm.933-7.5a.834.834,0,0,1-.244-.589,6.666,6.666,0,0,0-11.483-4.583h2a.833.833,0,1,1,0,1.667h-3.75a.833.833,0,0,1-.833-.833V250.5a.833.833,0,1,1,1.667,0v1.475A8.323,8.323,0,0,1,968.333,258a.834.834,0,0,1-1.423.589Z"
            fill="#2f253d" />
    </g>
</svg>