<svg xmlns="http://www.w3.org/2000/svg" width="17.998" height="17.999" viewBox="0 0 17.998 17.999">
  <g id="COCO_Bold_Message_-_3" data-name="COCO/Bold/Message - 3" transform="translate(-940 -1644)">
    <path id="Vector" d="M942.547,1662a2.546,2.546,0,0,1-.185-5.086,6.963,6.963,0,0,1-.681-1.77,12.425,12.425,0,0,1,0-5.64,6.947,6.947,0,0,1,5.177-5.177,12.359,12.359,0,0,1,5.64,0,6.949,6.949,0,0,1,5.177,5.177,12.425,12.425,0,0,1,0,5.64,6.948,6.948,0,0,1-5.177,5.177,12.359,12.359,0,0,1-5.64,0,6.962,6.962,0,0,1-1.77-.681A2.554,2.554,0,0,1,942.547,1662Zm4.584-8.76a.61.61,0,1,0,0,1.22h5.1a.61.61,0,1,0,0-1.22Zm-1.021-3.06a.61.61,0,0,0,0,1.22h3.06a.61.61,0,0,0,0-1.22Z" fill="#363853"/>
  </g>
</svg>
