<svg xmlns="http://www.w3.org/2000/svg" width="24" height="14.308" viewBox="0 0 24 14.308">
    <g id="_044-coupon_1" data-name="044-coupon 1" transform="translate(-2071 -2023.828)">
        <path id="Vector"
            d="M2095,2027.059v7.846a.693.693,0,0,1-.692.692,1.848,1.848,0,0,0-1.846,1.846.693.693,0,0,1-.692.692h-17.538a.693.693,0,0,1-.693-.692,1.848,1.848,0,0,0-1.846-1.846.693.693,0,0,1-.692-.692v-7.846a.693.693,0,0,1,.692-.692,1.848,1.848,0,0,0,1.846-1.846.693.693,0,0,1,.693-.692h17.538a.693.693,0,0,1,.692.692,1.848,1.848,0,0,0,1.846,1.846.693.693,0,0,1,.692.692Z"
            fill="#b3e59f" />
        <path id="Vector-2" data-name="Vector"
            d="M2094.308,2026.366a1.848,1.848,0,0,1-1.846-1.846.693.693,0,0,0-.692-.692H2083v14.308h8.769a.693.693,0,0,0,.692-.692,1.848,1.848,0,0,1,1.846-1.846.693.693,0,0,0,.692-.692v-7.846a.693.693,0,0,0-.692-.692Z"
            fill="#95d6a4" />
        <path id="Vector-3" data-name="Vector"
            d="M2074.231,2033.059a.693.693,0,0,1-.693-.692V2029.6a.692.692,0,0,1,1.385,0v2.769A.692.692,0,0,1,2074.231,2033.059Z"
            fill="#283593" />
        <path id="Vector-4" data-name="Vector"
            d="M2091.769,2033.059a.692.692,0,0,1-.692-.692V2029.6a.692.692,0,1,1,1.385,0v2.769A.692.692,0,0,1,2091.769,2033.059Z"
            fill="#283593" />
        <path id="Vector-5" data-name="Vector"
            d="M2082.506,2034.938a.692.692,0,0,1-.49-1.182l6.527-6.527a.692.692,0,0,1,.979.979l-6.527,6.527a.689.689,0,0,1-.49.2Z"
            fill="#fdd835" />
        <circle id="Vector-6" data-name="Vector" cx="1.85" cy="1.85" r="1.85" transform="translate(2081.38 2026.59)"
            fill="#fdd835" />
        <g id="Group">
            <path id="Vector-7" data-name="Vector"
                d="M2089.522,2027.229a.693.693,0,0,0-.979,0l-5.543,5.543v1.958l6.522-6.522a.693.693,0,0,0,0-.979Z"
                fill="#fbc02d" />
            <path id="Vector-8" data-name="Vector"
                d="M2083.231,2026.6a1.87,1.87,0,0,0-.231.015v3.663a1.846,1.846,0,1,0,.231-3.677Z" fill="#fbc02d" />
            <path id="Vector-9" data-name="Vector"
                d="M2088.308,2031.674a1.846,1.846,0,1,0,1.846,1.846,1.848,1.848,0,0,0-1.846-1.846Z" fill="#fbc02d" />
        </g>
        <path id="Vector-10" data-name="Vector" d="M2079.077,2023.828v3.462a.692.692,0,1,1-1.385,0v-3.462Z"
            fill="#ddeafb" />
        <path id="Vector-11" data-name="Vector" d="M2079.077,2034.674v3.462h-1.385v-3.462a.692.692,0,0,1,1.385,0Z"
            fill="#ddeafb" />
        <path id="Vector-12" data-name="Vector"
            d="M2078.385,2033.059a.692.692,0,0,1-.692-.692V2029.6a.692.692,0,1,1,1.385,0v2.769A.692.692,0,0,1,2078.385,2033.059Z"
            fill="#ddeafb" />
    </g>
</svg>