<svg xmlns="http://www.w3.org/2000/svg" width="24" height="29.333" viewBox="0 0 24 29.333">
  <path id="Vector" d="M964.2,1818.36a12.281,12.281,0,0,0-11.2,12.387v8.92a4,4,0,0,0,4,4h1.333A2.675,2.675,0,0,0,961,1841v-5.333a2.674,2.674,0,0,0-2.667-2.667h-2.667v-2.28a9.588,9.588,0,0,1,9.053-9.72,9.332,9.332,0,0,1,9.613,9.333V1833h-2.667a2.674,2.674,0,0,0-2.667,2.667V1841a2.675,2.675,0,0,0,2.667,2.667h2.667V1845h-8a1.333,1.333,0,0,0,0,2.667H973a3.994,3.994,0,0,0,4-4v-13.333a12,12,0,0,0-12.8-11.973Z" transform="translate(-953 -1818.334)" fill="#676097"/>
</svg>
