<svg xmlns="http://www.w3.org/2000/svg" width="24" height="24" viewBox="0 0 24 24">
  <g id="_043-guarantee" data-name="043-guarantee" transform="translate(-1898 -1614)">
    <path id="Vector" d="M1920.7,1624.1c-.281-.231-.707-.581-.755-.762a2.859,2.859,0,0,1,.276-1.091,2,2,0,0,0-1.88-3.228,1.121,1.121,0,0,1-1.358-1.358,2,2,0,0,0-3.228-1.88,2.862,2.862,0,0,1-1.09.276c-.182-.049-.531-.474-.762-.755-.5-.609-1.069-1.3-1.9-1.3s-1.4.691-1.9,1.3c-.231.281-.581.706-.762.755a2.859,2.859,0,0,1-1.09-.276,2,2,0,0,0-3.228,1.88,1.121,1.121,0,0,1-1.358,1.358,2,2,0,0,0-1.88,3.228,2.858,2.858,0,0,1,.276,1.09c-.049.181-.474.531-.755.763-.609.5-1.3,1.069-1.3,1.9s.691,1.4,1.3,1.9c.281.231.706.581.755.762a2.859,2.859,0,0,1-.276,1.091,2,2,0,0,0,1.88,3.228,1.121,1.121,0,0,1,1.358,1.358,2,2,0,0,0,3.228,1.88,2.86,2.86,0,0,1,1.09-.276c.182.048.531.474.763.755.5.609,1.069,1.3,1.9,1.3s1.4-.691,1.9-1.3c.231-.281.581-.706.762-.755a2.865,2.865,0,0,1,1.091.276,2,2,0,0,0,3.228-1.88,1.121,1.121,0,0,1,1.358-1.358,2,2,0,0,0,1.88-3.228,2.858,2.858,0,0,1-.276-1.09c.048-.182.474-.531.755-.763.609-.5,1.3-1.069,1.3-1.9s-.691-1.4-1.3-1.9Z" fill="#00ee8a"/>
    <path id="Vector-2" data-name="Vector" d="M1915.52,1622.97a1.846,1.846,0,0,0-3.3-.847l-2.877,3.835-1.264-1.264a1.846,1.846,0,0,0-2.611,2.611l2.769,2.769a1.834,1.834,0,0,0,1.306.541c.044,0,.088,0,.131,0a1.844,1.844,0,0,0,1.346-.734l4.154-5.538a1.832,1.832,0,0,0,.351-1.369Z" fill="#00aa63"/>
    <path id="Vector-3" data-name="Vector" d="M1920.7,1624.1c-.281-.231-.707-.581-.755-.762a2.859,2.859,0,0,1,.276-1.091,2,2,0,0,0-1.88-3.228,1.121,1.121,0,0,1-1.358-1.358,2,2,0,0,0-3.228-1.88,2.862,2.862,0,0,1-1.09.276c-.182-.049-.531-.474-.762-.755-.5-.609-1.069-1.3-1.9-1.3v24c.833,0,1.4-.691,1.9-1.3.231-.281.581-.706.762-.755a2.865,2.865,0,0,1,1.091.276,2,2,0,0,0,3.228-1.88,1.121,1.121,0,0,1,1.358-1.358,2,2,0,0,0,1.88-3.228,2.858,2.858,0,0,1-.276-1.09c.048-.182.474-.531.755-.763.609-.5,1.3-1.069,1.3-1.9s-.691-1.4-1.3-1.9Z" fill="#00cc76"/>
    <path id="Vector-4" data-name="Vector" d="M1915.52,1622.97a1.846,1.846,0,0,0-3.3-.847l-2.215,2.954v5.479a1.845,1.845,0,0,0,1.015-.679l4.154-5.539a1.832,1.832,0,0,0,.351-1.369Z" fill="#009959"/>
  </g>
</svg>
