<svg xmlns="http://www.w3.org/2000/svg" width="24" height="24" viewBox="0 0 24 24">
    <g id="Group_94" data-name="Group 94" transform="translate(-1816 -1524)">
        <circle id="Subtract" cx="12" cy="12" r="12" transform="translate(1816 1524)" fill="#fdd835" />
        <path id="Vector"
            d="M1828,1546a10,10,0,1,1,10-10A10.011,10.011,0,0,1,1828,1546Zm-1.91-6a14.063,14.063,0,0,0,1.91,3.96,14.091,14.091,0,0,0,1.91-3.96Zm-5.01,0a8,8,0,0,0,4.33,3.56,15.665,15.665,0,0,1-1.38-3.56Zm10.89,0h0a15.711,15.711,0,0,1-1.38,3.56,8.026,8.026,0,0,0,4.33-3.56Zm-11.71-6h0a7.823,7.823,0,0,0,0,4h3.38a14.42,14.42,0,0,1,0-4Zm12.1,0a14.308,14.308,0,0,1,0,4h3.38a7.824,7.824,0,0,0,0-4Zm-6.7,0a12.571,12.571,0,0,0,0,4h4.68a12.571,12.571,0,0,0,0-4Zm2.34-5.96h0a14.064,14.064,0,0,0-1.91,3.96h3.82a14.09,14.09,0,0,0-1.91-3.96Zm-2.59.4h0a7.994,7.994,0,0,0-4.33,3.56h2.95a15.64,15.64,0,0,1,1.38-3.56Zm5.18,0h0a15.684,15.684,0,0,1,1.38,3.56h2.95a8.024,8.024,0,0,0-4.33-3.56Z"
            fill="#ffa000" />
    </g>
</svg>