<svg xmlns="http://www.w3.org/2000/svg" width="32" height="32" viewBox="0 0 32 32">
    <rect id="Rectangle_44" data-name="Rectangle 44" width="32" height="32" rx="5" fill="#6eadc0" />
    <g id="language_1" data-name="language 1" transform="translate(-3080 -638)">
        <g id="Group">
            <g id="Group-2" data-name="Group">
                <path id="Vector" d="M3091.418,649.352h-.251l-.469,2.344h1.188Z" fill="#fff" />
            </g>
        </g>
        <g id="Group-3" data-name="Group">
            <g id="Group-4" data-name="Group">
                <path id="Vector-2" data-name="Vector" d="M3100.9,654.039a1.133,1.133,0,1,0,1.963,0Z" fill="#fff" />
            </g>
        </g>
        <g id="Group-5" data-name="Group">
            <g id="Group-6" data-name="Group">
                <path id="Vector-3" data-name="Vector"
                    d="M3104.242,664h-8.763l2.57-2.937a1.816,1.816,0,0,0,.434-1.334l-1.516-12.175h7.276a1.8,1.8,0,0,1,1.758,1.8v12.891A1.76,1.76,0,0,1,3104.242,664Zm-2.383-6.552h0c.333.306.661.557,1.009.823.13.1.276.211.421.326a.586.586,0,1,0,.732-.914c-.134-.106-.266-.207-.413-.319-.311-.237-.633-.483-.934-.758a7.4,7.4,0,0,0,1.411-2.567h.156a.586.586,0,1,0,0-1.172h-1.8v-.586a.586.586,0,0,0-1.172,0v.586h-1.758a.586.586,0,0,0,0,1.172h.157a7.445,7.445,0,0,0,1.373,2.567c-.376.344-.746.634-1.138.942l-.172.135a.587.587,0,0,0-.091.823.581.581,0,0,0,.457.22.587.587,0,0,0,.366-.129l.164-.129c.436-.343.812-.638,1.227-1.019Z"
                    fill="#fff" />
            </g>
        </g>
        <g id="Group-7" data-name="Group">
            <g id="Group-8" data-name="Group">
                <path id="Vector-4" data-name="Vector"
                    d="M3097,660.484h-9.24a1.76,1.76,0,0,1-1.758-1.758V645.758a1.76,1.76,0,0,1,1.758-1.759h6.035a1.759,1.759,0,0,1,1.744,1.54c.018.138,1.782,14.309,1.78,14.372a.726.726,0,0,1-.255.5l-.017.019-.047.053Zm-6.311-12.3a.587.587,0,0,0-.574.471l-1.173,5.859a.587.587,0,0,0,.46.689.6.6,0,0,0,.119.012.585.585,0,0,0,.57-.471l.374-1.873h1.657l.374,1.873a.587.587,0,0,0,.574.471.575.575,0,0,0,.116-.012.585.585,0,0,0,.46-.689l-1.172-5.859a.588.588,0,0,0-.575-.471Z"
                    fill="#fff" />
            </g>
        </g>
        <g id="Group-9" data-name="Group">
            <g id="Group-10" data-name="Group">
                <path id="Vector-5" data-name="Vector"
                    d="M3092.846,661.656l.1.8a1.772,1.772,0,0,0,1.013,1.362l1.967-2.166Z" fill="#fff" />
            </g>
        </g>
    </g>
</svg>