<svg xmlns="http://www.w3.org/2000/svg" width="33.77" height="32.53" viewBox="0 0 33.77 32.53">
  <g id="Group_1" data-name="Group 1" transform="translate(-1805 -695)">
    <rect id="Rectangle_23" data-name="Rectangle 23" width="33.77" height="32.53" transform="translate(1805 695)" fill="#6eadc0"/>
    <g id="COCO_Bold_Setting_-_2" data-name="COCO/Bold/Setting - 2">
      <path id="Vector" d="M1822.261,718.761h-8.443a.818.818,0,0,1,0-1.636h8.475a3,3,0,0,1,5.741,0h2.147a.818.818,0,0,1,0,1.636h-2.116a3,3,0,0,1-5.805,0Zm-7.615-5.924-.806.021a.818.818,0,1,1-.042-1.635l.838-.022a3,3,0,0,1,5.79.022h9.757a.819.819,0,0,1,0,1.637H1820.4a3,3,0,0,1-5.756-.022Zm7.673-5.881h-8.5a.818.818,0,0,1,0-1.636h8.423a3,3,0,0,1,5.845,0h2.1a.818.818,0,0,1,0,1.636h-2.173a3,3,0,0,1-5.689,0Z" fill="#fff"/>
    </g>
  </g>
</svg>
