<svg xmlns="http://www.w3.org/2000/svg" width="32" height="32" viewBox="0 0 32 32">
    <g id="Group_1" data-name="Group 1" transform="translate(-2251 -364)">
        <rect id="Rectangle_23" data-name="Rectangle 23" width="32" height="32" rx="5" transform="translate(2251 364)"
            fill="#fda325" />
        <g id="COCO_Bold_Wallet" data-name="COCO/Bold/Wallet">
            <path id="Vector"
                d="M2267,389a14.1,14.1,0,0,1-3.031-.33l-.418-.092a7.511,7.511,0,0,1-5.674-5.509,12.74,12.74,0,0,1,0-6.138,7.511,7.511,0,0,1,5.674-5.509l.418-.092a14.079,14.079,0,0,1,6.062,0l.417.092a7.509,7.509,0,0,1,5.675,5.509,12.716,12.716,0,0,1,0,6.138,7.509,7.509,0,0,1-5.675,5.509l-.417.092A14.1,14.1,0,0,1,2267,389Zm6.828-11.267a5.311,5.311,0,0,0-.885.074l-.074.013a2.5,2.5,0,0,0-2,1.664,1.751,1.751,0,0,0,0,1.031,2.5,2.5,0,0,0,2,1.664l.074.013a5.368,5.368,0,0,0,.893.075c.081,0,.163,0,.244-.006a.861.861,0,0,0,.8-.755,11.2,11.2,0,0,0,0-3.013.86.86,0,0,0-.8-.754C2274,377.735,2273.912,377.733,2273.828,377.733Zm-10.874-1.363a.6.6,0,0,0,0,1.21h4.051a.6.6,0,0,0,0-1.21Z"
                fill="#fff" />
        </g>
    </g>
</svg>