<svg xmlns="http://www.w3.org/2000/svg" xmlns:xlink="http://www.w3.org/1999/xlink" width="13.156" height="23.896" viewBox="0 0 13.156 23.896">
  <defs>
    <radialGradient id="radial-gradient" cx="0.5" cy="0.5" r="0.035" gradientTransform="translate(-0.408) scale(1.816 1)" gradientUnits="objectBoundingBox">
      <stop offset="0"/>
      <stop offset="1" stop-opacity="0"/>
    </radialGradient>
  </defs>
  <g id="layer1" transform="translate(-1907.055 -2017.052)">
    <g id="g4182">
      <g id="g5747">
        <path id="path4157" d="M1907.055,2017.055v11.938c0,6.566.006,11.944.016,11.953s.415-.031.9-.085,1.165-.123,1.5-.151c.516-.044,2.061-.141,2.237-.145.053,0,.056-.267.063-5.057l.01-5.057.374,1.056c.056.163.075.214.132.374l.562-11.752c-.119-.336-.056-.16-.192-.544-.459-1.3-.848-2.4-.864-2.445l-.031-.088h-4.713Z" fill="#ff3c7d"/>
        <path id="path5717" d="M1907.055,2017.055v11.938c0,6.566.006,11.944.016,11.953s.415-.031.9-.085,1.165-.123,1.5-.151c.516-.044,2.061-.141,2.237-.145.053,0,.056-.267.063-5.057l.01-5.057.374,1.056c.056.163.075.214.132.374l.562-11.752c-.119-.336-.056-.16-.192-.544-.459-1.3-.848-2.4-.864-2.445l-.031-.088h-4.713Z" fill="#ff3c7d"/>
        <path id="path5719" d="M1907.055,2017.055v6.7l4.719,12.522c0-.286,0-.443,0-.77l.01-5.057.374,1.056c2.074,5.884,3.189,9.04,3.2,9.046s.317.022.7.041c1.15.057,2.576.179,3.66.314a2.482,2.482,0,0,0,.481.034c.01-.009.016-2.643.016-6.362l-4.694-13.509,0,1.279-.009,5.281-.434-1.226c-.424-1.2-.707-2-2.413-6.821-.459-1.3-.848-2.4-.864-2.445l-.031-.088h-4.707Z" fill="url(#radial-gradient)"/>
        <path id="path5721" d="M1907.055,2017.055l4.729,13.405v-.006l.374,1.056c2.077,5.881,3.192,9.036,3.2,9.043s.317.022.7.041c1.15.057,2.576.179,3.66.314a2.454,2.454,0,0,0,.478.034l-4.688-13.314v0l-.434-1.226c-.424-1.2-.707-2-2.413-6.821-.459-1.3-.848-2.4-.864-2.445l-.031-.088h-2.353Z" fill="#ff3c7d"/>
      </g>
    </g>
  </g>
</svg>
