<svg xmlns="http://www.w3.org/2000/svg" width="32" height="32" viewBox="0 0 32 32">
    <g id="Notification" transform="translate(-800 -35)">
        <rect id="Notification-2" data-name="Notification" width="32" height="32" rx="5" transform="translate(800 35)"
            fill="#fff" />
        <g id="COCO_Bold_Notification" data-name="COCO/Bold/Notification">
            <path id="Vector"
                d="M815.547,62.707a4.911,4.911,0,0,1-1.154-.138l-.262-.063a4.375,4.375,0,0,1-3.218-3.323l-.1-.449c-.021-.1-.036-.187-.048-.276-1.023-.127-2.052-.3-3.056-.5l-.5-.1a4.279,4.279,0,0,1-1.544-7.68A14.767,14.767,0,0,1,806,44.076l.074-.274A10.034,10.034,0,0,1,812.6,36.87a9.669,9.669,0,0,1,3.025-.484,9.572,9.572,0,0,1,3.047.495,9.773,9.773,0,0,1,6.361,6.865l.1.378a14.8,14.8,0,0,1,.293,6.045,4.279,4.279,0,0,1-1.544,7.68l-.5.1c-1.007.208-2.035.378-3.055.5-.013.095-.03.188-.049.276l-.1.449a4.374,4.374,0,0,1-3.217,3.323l-.262.063A4.9,4.9,0,0,1,815.547,62.707Zm-2.694-4.046.019.088a2.341,2.341,0,0,0,1.723,1.779l.262.063a2.923,2.923,0,0,0,1.378,0l.262-.063a2.341,2.341,0,0,0,1.724-1.779l.019-.088c-.9.063-1.8.094-2.693.094s-1.8-.032-2.693-.094Z"
                fill="#8c8d98" />
        </g>
    </g>
</svg>