<svg xmlns="http://www.w3.org/2000/svg" width="32" height="32" viewBox="0 0 32 32">
    <rect id="Rectangle_42" data-name="Rectangle 42" width="32" height="32" rx="5" fill="#fda325" />
    <g id="COCO_Bold_Dollar" data-name="COCO/Bold/Dollar" transform="translate(-3080 -464)">
        <path id="Vector"
            d="M3096,489a14.077,14.077,0,0,1-3.031-.331l-.418-.092a7.51,7.51,0,0,1-5.675-5.509,12.74,12.74,0,0,1,0-6.138,7.508,7.508,0,0,1,5.675-5.508l.418-.093a14.078,14.078,0,0,1,6.061,0l.418.093a7.509,7.509,0,0,1,5.675,5.508,12.74,12.74,0,0,1,0,6.138,7.512,7.512,0,0,1-5.675,5.509l-.418.092A14.067,14.067,0,0,1,3096,489Zm-2.024-8.139a.606.606,0,0,0-.607.6,2.018,2.018,0,0,0,1.956,2.07h.068v.494a.607.607,0,0,0,1.214,0v-.494h.239a1.837,1.837,0,0,0,1.784-1.882,1.876,1.876,0,0,0-1.2-1.78l-.819-.3v-1.9h.066a.807.807,0,0,1,.743.861.607.607,0,0,0,1.214,0,2.018,2.018,0,0,0-1.957-2.07h-.066v-.495a.607.607,0,0,0-1.214,0v.495h-.241a1.836,1.836,0,0,0-1.783,1.882,1.878,1.878,0,0,0,1.2,1.78l.821.3v1.9h-.068a.806.806,0,0,1-.742-.86A.607.607,0,0,0,3093.976,480.861Zm2.871,1.465h-.239v-1.463l.4.147a.674.674,0,0,1,.405.644A.626.626,0,0,1,3096.847,482.326Zm-1.453-3.19h0l-.4-.146a.674.674,0,0,1-.4-.643.626.626,0,0,1,.569-.673h.241v1.462Z"
            fill="#fff" />
    </g>
</svg>