<svg xmlns="http://www.w3.org/2000/svg" width="18" height="16.03" viewBox="0 0 18 16.03">
    <g id="COCO_Bold_Two-user" data-name="COCO/Bold/Two-user" transform="translate(-940 -1747.97)">
        <path id="Vector"
            d="M955.861,1764h-1.886a.686.686,0,1,1,0-1.372h1.886a.751.751,0,0,0,.754-.747,3.036,3.036,0,0,0-2.585-3,1.537,1.537,0,0,0-.222-.017h-.894a.686.686,0,1,1,0-1.372h.894a2.767,2.767,0,0,1,.44.035,4.4,4.4,0,0,1,3.751,4.355A2.131,2.131,0,0,1,955.861,1764Zm-5.539,0h-8.184a2.131,2.131,0,0,1-2.139-2.119,4.4,4.4,0,0,1,3.751-4.355l.165-.026a14.8,14.8,0,0,1,4.63,0l.164.026a4.4,4.4,0,0,1,3.751,4.355A2.131,2.131,0,0,1,950.323,1764Zm-4.092-8.19a3.92,3.92,0,1,1,3.89-3.92A3.91,3.91,0,0,1,946.23,1755.81Zm5.539-.039a.686.686,0,1,1,0-1.372,2.514,2.514,0,1,0,0-5.028.686.686,0,1,1,0-1.372,3.886,3.886,0,1,1,0,7.771Z"
            fill="#363853" />
    </g>
</svg>