<svg xmlns="http://www.w3.org/2000/svg" width="32" height="32" viewBox="0 0 32 32">
  <g id="Group_1" data-name="Group 1" transform="translate(-3080 -223)">
    <rect id="Rectangle_24" data-name="Rectangle 24" width="32" height="32" rx="5" transform="translate(3080 223)" fill="#fda325"/>
    <g id="COCO_Bold_User" data-name="COCO/Bold/User">
      <path id="Vector" d="M3091.4,248a2.393,2.393,0,0,1-2.4-2.383,4.975,4.975,0,0,1,4.214-4.9l.186-.029a16.64,16.64,0,0,1,5.2,0l.185.029a4.975,4.975,0,0,1,4.215,4.9,2.394,2.394,0,0,1-2.4,2.383Zm.187-13.631a4.41,4.41,0,1,1,4.41,4.37A4.39,4.39,0,0,1,3091.59,234.37Z" fill="#fff"/>
    </g>
  </g>
</svg>
