<svg xmlns="http://www.w3.org/2000/svg" width="288.54" height="224.18" viewBox="0 0 288.54 224.18">
    <g id="Illustration" transform="translate(-48.18 -90.82)">
        <g id="_6_FINANCES" data-name="6   FINANCES">
            <g id="PIGGY_BANK" data-name="PIGGY BANK">
                <g id="Group">
                    <g id="Group-2" data-name="Group">
                        <path id="Vector"
                            d="M222.024,284.281a81.083,81.083,0,0,0,4.129,22.672,11.005,11.005,0,0,0,10.42,7.463v.005a9.824,9.824,0,0,0,9.073-6.056,105.547,105.547,0,0,0,6.448-24.084Z"
                            fill="#f27f71" />
                    </g>
                    <path id="Vector-2" data-name="Vector"
                        d="M222.3,288.325q-.044-.5-.085-1.006l7.82.145s1.794,5.982,3.437,11.3c2.192,7.083,4.285,11.789,8.818,13.822a9.731,9.731,0,0,1-1.366.818,15.259,15.259,0,0,1-4.355,1.018v-.005h-.09c-.172,0-.343-.007-.514-.016l-.055,0c-.073-.005-.147-.008-.219-.015l-.053,0-.054-.005-.055-.005-.053-.005-.029,0c-.064-.005-.126-.014-.19-.021l-.1-.012-.055-.007-.266-.04-.053-.009-.054-.01-.053-.009-.053-.009-.05-.01c-.059-.01-.118-.021-.176-.033q-.433-.088-.853-.209c-.093-.026-.185-.054-.278-.083-.121-.038-.242-.079-.361-.121l-.135-.048-.1-.038a11.1,11.1,0,0,1-1.98-.989l-.088-.057-.1-.067-.074-.05-.088-.059-.028-.019c-.293-.2-.576-.419-.848-.651q-.142-.119-.28-.243l-.077-.073-.078-.071-.076-.073-.064-.062a11.037,11.037,0,0,1-.986-1.1c-.157-.2-.309-.409-.452-.621l-.135-.205c-.055-.086-.109-.174-.162-.262l-.017-.028-.017-.029c-.123-.205-.238-.416-.349-.63l-.024-.048-.017-.036q-.22-.443-.4-.908l-.019-.052c-.028-.073-.055-.145-.081-.217s-.047-.131-.069-.2l-.051-.15-.016-.048-.035-.1-.021-.059L226,306.5l-.021-.06-.029-.09-.021-.062-.031-.091-.019-.06-.031-.1-.019-.053-.038-.121-.01-.029-.05-.152-.012-.041-.036-.109-.017-.057-.031-.1-.019-.062-.03-.092-.019-.062-.029-.091-.019-.062-.029-.095-.017-.057-.035-.109-.014-.043-.045-.154-.01-.029-.036-.123-.017-.055-.029-.1-.017-.06-.03-.093-.017-.064-.028-.091-.019-.062-.027-.1-.017-.06-.029-.1-.016-.052-.043-.15,0,0-.043-.155-.014-.05-.031-.1-.015-.06-.028-.1-.017-.064-.026-.093-.017-.064-.026-.093-.017-.062-.028-.1-.014-.057-.035-.123-.009-.033-.041-.155-.012-.045-.029-.112-.016-.059-.026-.1-.017-.064-.024-.093-.016-.066-.024-.093-.017-.064-.024-.1-.015-.06-.03-.111-.01-.047-.04-.159-.008-.031-.031-.126-.014-.057-.024-.1-.016-.064-.024-.1-.016-.067-.023-.093-.016-.067-.024-.095-.014-.064-.024-.105-.014-.055-.035-.147,0-.014-.036-.159-.012-.055-.024-.1-.014-.066-.022-.1-.016-.067-.021-.1-.016-.067-.021-.095-.014-.067-.023-.1-.014-.062-.026-.119-.008-.043-.035-.159-.01-.052-.024-.111-.014-.066-.019-.1-.016-.069-.019-.1-.014-.071-.019-.093-.016-.071-.019-.095-.014-.069-.021-.105-.012-.059-.031-.16-.008-.047-.023-.117-.014-.067-.019-.1-.014-.072-.017-.092-.014-.076-.017-.091-.014-.074-.017-.093-.014-.073-.017-.1-.012-.071-.023-.121-.009-.043-.005-.033-.023-.129-.014-.073-.016-.095-.014-.078-.016-.09-.014-.079-.016-.088-.014-.079-.014-.088-.014-.081-.016-.088-.012-.079-.016-.1-.012-.072-.026-.161-.014-.079-.014-.09-.014-.085-.012-.085-.014-.086-.014-.083-.012-.086-.014-.083-.014-.088-.012-.081-.014-.09-.01-.079-.014-.091-.01-.072-.014-.09-.014-.093-.01-.074-.014-.1-.01-.076-.014-.1-.01-.076-.014-.1-.009-.076-.014-.1-.01-.073-.014-.1-.008-.067-.014-.105-.005-.045-.017-.121-.017-.142,0-.022-.014-.114-.009-.059-.012-.109-.008-.064-.014-.109-.007-.064-.014-.109-.007-.062-.014-.112-.007-.055-.014-.121,0-.029-.017-.138c-.005-.055-.012-.111-.017-.166l-.017-.142,0-.028-.015-.128,0-.047-.014-.124-.005-.048-.014-.124-.005-.048-.014-.128,0-.04-.014-.136,0-.014c-.022-.216-.043-.43-.064-.647l0-.016-.014-.147,0-.029-.012-.143,0-.029-.012-.147Z"
                        fill="#ffc2ba" />
                </g>
                <g id="Group-3" data-name="Group">
                    <path id="Vector-3" data-name="Vector"
                        d="M128.369,284.5a81.109,81.109,0,0,0,4.129,22.672,11.006,11.006,0,0,0,10.42,7.463v.005a9.824,9.824,0,0,0,9.074-6.056A105.55,105.55,0,0,0,158.44,284.5Z"
                        fill="#ffc3bb" />
                    <path id="Vector-4" data-name="Vector"
                        d="M128.432,285.626c-.023-.375-.043-.749-.062-1.129h30.07c-.145.9-.294,1.788-.447,2.657l-4.915-.081c-.91,2.916-6.417,20.526-9.122,23.357a15.182,15.182,0,0,1-4.509,3.641,11,11,0,0,1-6.912-6.8l0,0-.014-.043-.021-.059q-.515-1.5-.968-3.04c-.042-.138-.081-.276-.121-.416-.111-.38-.216-.763-.321-1.15-.021-.081-.043-.162-.066-.245-.121-.457-.24-.92-.354-1.386-.1-.394-.192-.791-.281-1.189q-.192-.831-.364-1.68c-.081-.4-.159-.8-.235-1.2-.031-.171-.064-.342-.095-.514l-.031-.176c-.045-.25-.09-.5-.131-.756q-.116-.686-.222-1.386l-.028-.181c-.048-.314-.093-.632-.138-.951l-.019-.142-.005-.041q-.233-1.722-.408-3.511l-.017-.192,0-.031c-.033-.354-.066-.71-.1-1.069Q128.5,286.785,128.432,285.626Z"
                        fill="#f27f71" />
                </g>
                <g id="Group-4" data-name="Group">
                    <path id="Vector-5" data-name="Vector"
                        d="M252.889,315A16.98,16.98,0,0,1,236.8,303.455c-2.807-8.3-6.1-18.023-6.1-18.023H150.963c-.005.015-4.013,11.351-7.171,20.287A13.92,13.92,0,0,1,130.669,315a15.783,15.783,0,0,1-15.381-12.214c-1.893-8.141-4.036-17.354-4.036-17.354H87.265a6.774,6.774,0,0,1-6.38-4.232,74.393,74.393,0,0,1-4.521-20.569,72.734,72.734,0,0,1,5.109-32.75,4.805,4.805,0,0,1,4.5-2.856c6.307-.005,20.366-.005,20.507-.005v-.012a47.671,47.671,0,0,1,.794-5.336,71.922,71.922,0,0,1,3.954-13.051,66.874,66.874,0,0,1,9.474-16.265,61.8,61.8,0,0,1,17.354-14.991l-8.008-15.285.006,0a17.361,17.361,0,0,1,5.693-.879c5.067,0,12.572,1.883,19.546,10.854,14.522-3.417,27.05-5.008,39.425-5.008a143.03,143.03,0,0,1,21.886,1.69,175.949,175.949,0,0,1,23.583,5.369,44.108,44.108,0,0,1,19.477,11.915,53.351,53.351,0,0,1,8.956,12.238,51.992,51.992,0,0,1,3.247,7.691,16.875,16.875,0,0,0,2.6-.849,17.929,17.929,0,0,0,7.059-8.673c1.049-2.728,1.91-6.8.049-10.714a11.268,11.268,0,0,1-7.824,4.909c-.213.017-.427.025-.635.025a6.572,6.572,0,0,1-4.057-1.319,9,9,0,0,1-2.944-4.409,7.335,7.335,0,0,1,.451-6.184,9.359,9.359,0,0,1,6.407-4.215,11.5,11.5,0,0,1,2.259-.221,12.567,12.567,0,0,1,4.237.746,15.241,15.241,0,0,0-.959-3.92,22.3,22.3,0,0,0-6.3-8.665,1.618,1.618,0,0,1,2.03-2.519,25.953,25.953,0,0,1,7.884,9.661,18.677,18.677,0,0,1,1.745,8.024,17.493,17.493,0,0,1,3.892,4.869c2.611,4.722,3.01,10.588,1.124,16.516a26.31,26.31,0,0,1-9.645,13.276,35.429,35.429,0,0,1-5.1,2.282c.3,1.449.574,2.978.825,4.545a216.939,216.939,0,0,1,2.959,43.009,158.041,158.041,0,0,1-7.112,41.73A18.8,18.8,0,0,1,252.891,315h0ZM274.67,178.556a3.7,3.7,0,0,0-2.946,1.08,1.778,1.778,0,0,0-.25,1.627c.378,1.369,1.172,2.122,2.236,2.122a2.482,2.482,0,0,0,.733-.116,6.991,6.991,0,0,0,3.987-3.481,6.445,6.445,0,0,0-2.938-1.181,6.649,6.649,0,0,0-.821-.051Z"
                        fill="#ffc3bb" />
                </g>
                <path id="Vector-6" data-name="Vector"
                    d="M150.6,286.954l2.547-7.836a.843.843,0,0,1,.8-.585.8.8,0,0,1,.1.006.849.849,0,0,1,.741.782l.421,6.115h-4.076l-.536,1.518Zm80.528-.781h0l-.25-.736H226l1.333-6.615a.666.666,0,0,1,.609-.53l.046,0a.661.661,0,0,1,.626.451l2.517,7.431-.006,0Zm-59.8-13.008a42.763,42.763,0,0,1-2.089-85.378c8.018-.635,16.155-.957,24.182-.957,8.043,0,16.2.323,24.256.96a42.763,42.763,0,0,1-2.1,85.379c-7.3.216-14.707.326-22.017.326C186.188,273.5,178.706,273.385,171.322,273.165Zm-74.552-34.7c-.97-6.323-2.418-10.553-3.907-13.372l2.869,0h.95a49.945,49.945,0,0,1,3.5,12.851,1.726,1.726,0,0,1-3.413.523Zm6.03-3.574a32.187,32.187,0,0,0-3.261-9.8h3.874a38.873,38.873,0,0,1,2.78,9.164,1.726,1.726,0,1,1-3.393.636ZM273.141,208.31c-.617-2.36-1.219-4.719-1.1-4.358a17.827,17.827,0,0,0,2.6-.849c.188-.118.376-.24.561-.366.708,2.29,1.53,5.225,2.255,8.543-.88.391-1.971.844-3.138,1.291a.5.5,0,0,1,.021.134C274.305,212.7,273.717,210.507,273.141,208.31Zm8.618-24.569c.313-.462,2.481-4.547,2.285-8.113a16.711,16.711,0,0,1,3.067,3.51,19.1,19.1,0,0,1-3.6,7.838,1.719,1.719,0,0,1-.73.549A11.269,11.269,0,0,0,281.759,183.741Zm-.013-.027.013.027c-.019.028-.032.043-.036.043S281.725,183.761,281.747,183.714ZM136.4,179.474l-1.137-2.268q1.427-.938,2.947-1.826l1.275,2.549a1.726,1.726,0,1,1-3.086,1.545Zm142.193.309.011.007a.176.176,0,0,1-.024.042A.159.159,0,0,1,278.594,179.784Zm-2.93-1.173q-.127-.016-.254-.027a8.3,8.3,0,0,0,.772-6.258,12.708,12.708,0,0,1,3.456.721,17.494,17.494,0,0,1-1.045,6.737A6.472,6.472,0,0,0,275.665,178.61Zm-119-6.562a18.175,18.175,0,0,1-1.2-1.993q1.737-.408,3.461-.788l.557.788a1.726,1.726,0,0,1-2.821,1.992Z"
                    fill="#f27f71" />
                <g id="Group-5" data-name="Group">
                    <g id="Group-6" data-name="Group">
                        <ellipse id="Vector-7" data-name="Vector" cx="30.21" cy="9.23" rx="30.21" ry="9.23"
                            transform="translate(55 246.07)" fill="#f27f71" />
                    </g>
                    <g id="Group-7" data-name="Group">
                        <rect id="Vector-8" data-name="Vector" width="3.45" height="30.4" rx="1.725"
                            transform="translate(80.28 240.11)" fill="#d7441e" />
                    </g>
                    <g id="Group-8" data-name="Group">
                        <rect id="Vector-9" data-name="Vector" width="3.45" height="30.4" rx="1.725"
                            transform="translate(86.69 240.11)" fill="#d7441e" />
                    </g>
                </g>
                <g id="Group-9" data-name="Group">
                    <path id="Vector-10" data-name="Vector"
                        d="M113.214,217.268a16.843,16.843,0,0,0,.364,4.959c.643,2.366,2.15,4.411,5.35,4.592a5.9,5.9,0,0,0,4.6-1.524c1.262-1.221,2.394-3.527,2.3-8l-3.452.07c.06,3-.406,4.626-1.254,5.447a2.5,2.5,0,0,1-2.006.557,2.388,2.388,0,0,1-2.213-2.051,13.033,13.033,0,0,1-.246-3.921Z" />
                </g>
                <g id="Group-10" data-name="Group">
                    <path id="Vector-11" data-name="Vector" d="M162.725,174.709h68.482l1.73,7.609H164.456Z" />
                </g>
            </g>
            <g id="BILL">
                <g id="Group-11" data-name="Group">
                    <path id="Vector-12" data-name="Vector"
                        d="M168.576,187.841c.223-.021.442-.04.663-.057a306.483,306.483,0,0,1,48.438,0,42.849,42.849,0,0,1,9.445,1.816v36.062H168.576Z"
                        fill="#82b5b2" />
                    <path id="Vector-13" data-name="Vector"
                        d="M179.09,187.163a306.457,306.457,0,0,1,35.926.425,19.533,19.533,0,0,1-35.926-.425Z"
                        fill="#a8cfcc" />
                    <path id="Vector-14" data-name="Vector"
                        d="M199.408,225.671V213.143a3.632,3.632,0,1,1,7.265,0v12.529Zm-12.128,0V208.854a3.631,3.631,0,1,1,7.262,0v16.817Z"
                        fill="#a8cfcc" />
                </g>
                <g id="Group-12" data-name="Group">
                    <rect id="Vector-15" data-name="Vector" width="58.55" height="50.57"
                        transform="translate(168.58 127.62)" fill="#a8cfcc" />
                    <path id="Vector-16" data-name="Vector" d="M177.672,178.184a19.529,19.529,0,0,1,38.938,0Z"
                        fill="#82b5b2" />
                    <path id="Vector-17" data-name="Vector"
                        d="M201.524,141.945v-14.33h7.262v14.33a3.631,3.631,0,1,1-7.262,0Zm-12.131-4.288V127.616h7.265v10.041a3.632,3.632,0,0,1-7.265,0Z"
                        fill="#82b5b2" />
                </g>
            </g>
            <g id="COINS">
                <g id="Group-13" data-name="Group">
                    <g id="Group-14" data-name="Group">
                        <ellipse id="Vector-18" data-name="Vector" cx="18.26" cy="18.44" rx="18.26" ry="18.44"
                            transform="translate(150.37 206.95)" fill="#ffcf84" />
                    </g>
                    <g id="Group-15" data-name="Group">
                        <path id="Vector-19" data-name="Vector"
                            d="M168.635,211.157a14.243,14.243,0,1,1,0,28.484.578.578,0,1,0,0,1.157,15.4,15.4,0,1,0,0-30.8.579.579,0,1,0,0,1.157Z"
                            fill="#fd9909" />
                    </g>
                    <g id="Group-16" data-name="Group">
                        <path id="Vector-20" data-name="Vector"
                            d="M168.63,239.641a14.243,14.243,0,1,1,0-28.484.579.579,0,1,0,0-1.157,15.4,15.4,0,1,0,0,30.8.578.578,0,1,0,0-1.157Z"
                            fill="#fd9909" />
                    </g>
                    <path id="Vector-21" data-name="Vector"
                        d="M170.475,240.513a.584.584,0,0,1,1.16-.143l.374,2.976q-.572.105-1.157.175Zm2.782-.794a.577.577,0,0,1,.366-.734.585.585,0,0,1,.74.363l1.039,3.033q-.541.212-1.1.391Zm-14.792.907,1.625-2.645a.588.588,0,0,1,.8-.194.576.576,0,0,1,.2.795l-1.629,2.651Q158.95,240.945,158.465,240.627Zm22.658-6.826a.576.576,0,0,1-.121-.809.588.588,0,0,1,.817-.121l2.624,1.923q-.3.5-.635.974Zm-30.02-2.716,3.155-1.406a.587.587,0,0,1,.772.291.577.577,0,0,1-.293.765l-3.232,1.44C151.359,231.818,151.224,231.454,151.1,231.085Zm31.861-8.693a.578.578,0,0,1,.434-.7l3.132-.732q.14.56.247,1.131l-3.109.726a.587.587,0,0,1-.7-.43Zm-27.433-4.513-2.768-1.792c.2-.332.41-.658.628-.976l2.779,1.8a.576.576,0,0,1,.169.8.588.588,0,0,1-.809.167Zm1.242-2.422-2.344-1.707c.248-.3.508-.589.776-.87l2.26,1.645a.574.574,0,0,1,.124.809.588.588,0,0,1-.816.123Zm20.609-1.646a.576.576,0,0,1-.094-.813l2.005-2.5q.478.336.932.7l-2.021,2.523a.59.59,0,0,1-.822.094Zm-2.384-1.7a.576.576,0,0,1-.239-.783l1.4-2.607q.535.238,1.051.507l-1.426,2.646a.588.588,0,0,1-.791.238Zm-10.8-1.3-.827-2.921q.558-.165,1.13-.294l.823,2.9a.579.579,0,0,1-.406.714.589.589,0,0,1-.158.022A.583.583,0,0,1,164.193,210.812Z"
                        fill="#fd9909" />
                </g>
                <g id="Group-17" data-name="Group">
                    <g id="Group-18" data-name="Group">
                        <ellipse id="Vector-22" data-name="Vector" cx="18.26" cy="18.44" rx="18.26" ry="18.44"
                            transform="translate(199.43 229.58)" fill="#ffcf84" />
                    </g>
                    <g id="Group-19" data-name="Group">
                        <path id="Vector-23" data-name="Vector"
                            d="M217.693,233.783a14.243,14.243,0,1,1,0,28.484.578.578,0,1,0,0,1.157,15.4,15.4,0,1,0,0-30.8.579.579,0,1,0,0,1.157Z"
                            fill="#fd9909" />
                    </g>
                    <g id="Group-20" data-name="Group">
                        <path id="Vector-24" data-name="Vector"
                            d="M217.688,262.266a14.243,14.243,0,1,1,0-28.484.579.579,0,1,0,0-1.157,15.4,15.4,0,1,0,0,30.8.578.578,0,1,0,0-1.157Z"
                            fill="#fd9909" />
                    </g>
                    <path id="Vector-25" data-name="Vector"
                        d="M219.533,263.138a.585.585,0,0,1,1.161-.142l.373,2.976q-.572.1-1.156.175Zm2.781-.793a.578.578,0,0,1,.367-.734.584.584,0,0,1,.74.362l1.039,3.033q-.541.212-1.1.391Zm-14.792.906,1.624-2.644a.588.588,0,0,1,.8-.194.577.577,0,0,1,.2.8l-1.629,2.651Q208.008,263.571,207.523,263.252Zm22.658-6.825a.576.576,0,0,1-.122-.809.588.588,0,0,1,.817-.121l2.624,1.922c-.2.332-.414.657-.635.974Zm-30.02-2.717,3.154-1.4a.586.586,0,0,1,.772.29.576.576,0,0,1-.293.765l-3.233,1.441C200.417,254.443,200.282,254.079,200.161,253.71Zm31.861-8.692a.579.579,0,0,1,.434-.7l3.132-.731q.14.559.247,1.131l-3.11.725a.585.585,0,0,1-.7-.429Zm-27.433-4.513-2.767-1.793c.2-.332.409-.657.627-.976l2.779,1.8a.576.576,0,0,1,.169.8.589.589,0,0,1-.809.167Zm1.241-2.423-2.343-1.707q.374-.447.776-.869l2.26,1.645a.574.574,0,0,1,.124.808.589.589,0,0,1-.817.123Zm20.61-1.646a.576.576,0,0,1-.094-.813l2.005-2.5q.478.335.932.7l-2.021,2.522a.589.589,0,0,1-.822.094Zm-2.384-1.7a.576.576,0,0,1-.239-.783l1.4-2.608c.356.158.706.329,1.05.508l-1.425,2.645a.589.589,0,0,1-.791.238Zm-10.8-1.3-.827-2.921q.558-.165,1.13-.3l.823,2.9a.578.578,0,0,1-.406.713.591.591,0,0,1-.158.022A.582.582,0,0,1,213.251,233.438Z"
                        fill="#fd9909" />
                </g>
                <g id="Group-21" data-name="Group">
                    <g id="Group-22" data-name="Group">
                        <g id="Group-23" data-name="Group">
                            <ellipse id="Vector-26" data-name="Vector" cx="18.26" cy="18.44" rx="18.26" ry="18.44"
                                transform="translate(110.46 90.82)" fill="#ffcf84" />
                        </g>
                        <g id="Group-24" data-name="Group">
                            <path id="Vector-27" data-name="Vector"
                                d="M128.723,95.021a14.243,14.243,0,1,1,0,28.484.578.578,0,1,0,0,1.157,15.4,15.4,0,1,0,0-30.8.579.579,0,1,0,0,1.157Z"
                                fill="#fd9909" />
                        </g>
                        <g id="Group-25" data-name="Group">
                            <path id="Vector-28" data-name="Vector"
                                d="M128.719,123.5a14.243,14.243,0,1,1,0-28.484.579.579,0,1,0,0-1.157,15.4,15.4,0,1,0,0,30.8.578.578,0,1,0,0-1.157Z"
                                fill="#fd9909" />
                        </g>
                        <path id="Vector-29" data-name="Vector"
                            d="M130.564,124.377a.585.585,0,0,1,1.161-.143l.373,2.976q-.572.105-1.156.175Zm2.781-.794a.578.578,0,0,1,.367-.733.585.585,0,0,1,.74.363l1.04,3.033q-.543.212-1.1.391Zm-14.792.906,1.624-2.644a.588.588,0,0,1,.8-.194.576.576,0,0,1,.2.795l-1.629,2.651Q119.039,124.809,118.553,124.49Zm22.658-6.824a.576.576,0,0,1-.122-.809.588.588,0,0,1,.817-.121l2.624,1.923q-.3.5-.635.974Zm-30.02-2.717,3.154-1.406a.587.587,0,0,1,.772.291.576.576,0,0,1-.293.765l-3.232,1.44C111.448,115.682,111.313,115.318,111.191,114.949Zm31.861-8.693a.578.578,0,0,1,.434-.7l3.132-.731q.14.559.247,1.13l-3.109.726a.585.585,0,0,1-.7-.43Zm-27.433-4.513-2.767-1.792c.2-.332.409-.658.627-.976l2.779,1.8a.574.574,0,0,1,.169.8.588.588,0,0,1-.809.167Zm1.242-2.422-2.344-1.707q.374-.447.776-.87l2.261,1.645a.575.575,0,0,1,.123.809.588.588,0,0,1-.816.123Zm20.61-1.646a.575.575,0,0,1-.1-.813l2.006-2.5q.477.336.931.7l-2.02,2.522a.589.589,0,0,1-.821.094Zm-2.384-1.7a.576.576,0,0,1-.24-.782l1.4-2.608c.356.158.707.328,1.05.507l-1.424,2.646a.588.588,0,0,1-.791.238Zm-10.805-1.3-.827-2.921q.558-.165,1.13-.294l.823,2.9a.579.579,0,0,1-.406.714.585.585,0,0,1-.72-.4Z"
                            fill="#fd9909" />
                    </g>
                    <g id="Group-26" data-name="Group">
                        <g id="Group-27" data-name="Group">
                            <ellipse id="Vector-30" data-name="Vector" cx="18.26" cy="18.44" rx="18.26" ry="18.44"
                                transform="translate(48.18 157.98)" fill="#ffcf84" />
                        </g>
                        <g id="Group-28" data-name="Group">
                            <path id="Vector-31" data-name="Vector"
                                d="M66.446,162.178a14.243,14.243,0,1,1,0,28.484.578.578,0,1,0,0,1.157,15.4,15.4,0,1,0,0-30.8.578.578,0,1,0,0,1.157Z"
                                fill="#fd9909" />
                        </g>
                        <g id="Group-29" data-name="Group">
                            <path id="Vector-32" data-name="Vector"
                                d="M66.441,190.662a14.243,14.243,0,1,1,0-28.484.578.578,0,1,0,0-1.157,15.4,15.4,0,1,0,0,30.8.578.578,0,1,0,0-1.157Z"
                                fill="#fd9909" />
                        </g>
                        <path id="Vector-33" data-name="Vector"
                            d="M68.286,191.534a.585.585,0,0,1,1.161-.143l.373,2.976c-.381.07-.767.129-1.156.175Zm2.782-.794a.578.578,0,0,1,.367-.733.585.585,0,0,1,.74.363l1.039,3.032q-.541.213-1.1.392Zm-14.792.906L57.9,189a.588.588,0,0,1,.8-.193.576.576,0,0,1,.2.795l-1.63,2.651Q56.762,191.966,56.275,191.647Zm22.658-6.824a.577.577,0,0,1-.121-.81.587.587,0,0,1,.816-.121l2.625,1.923q-.3.5-.636.974Zm-30.02-2.717,3.154-1.406a.587.587,0,0,1,.772.291.577.577,0,0,1-.293.765l-3.233,1.44Q49.1,182.659,48.914,182.106Zm31.861-8.693a.577.577,0,0,1,.434-.7l3.132-.732c.093.374.176.751.247,1.131l-3.11.726a.59.59,0,0,1-.134.015A.584.584,0,0,1,80.775,173.413ZM53.342,168.9l-2.768-1.792q.3-.5.627-.976l2.779,1.8a.576.576,0,0,1,.169.8.588.588,0,0,1-.808.167Zm1.241-2.422-2.344-1.707q.374-.447.777-.87l2.26,1.645a.575.575,0,0,1,.124.809.589.589,0,0,1-.817.123Zm20.61-1.646a.576.576,0,0,1-.094-.813l2.005-2.5q.477.336.931.7l-2.021,2.523a.59.59,0,0,1-.822.094Zm-2.384-1.7a.575.575,0,0,1-.239-.782l1.4-2.608q.535.238,1.05.507L73.6,162.9a.588.588,0,0,1-.791.238Zm-10.8-1.3-.827-2.921q.556-.165,1.13-.294l.823,2.9a.579.579,0,0,1-.4.714.591.591,0,0,1-.158.022A.583.583,0,0,1,62,161.834Z"
                            fill="#fd9909" />
                    </g>
                    <g id="Group-30" data-name="Group">
                        <g id="Group-31" data-name="Group">
                            <ellipse id="Vector-34" data-name="Vector" cx="18.26" cy="18.44" rx="18.26" ry="18.44"
                                transform="translate(300.2 133.29)" fill="#ffcf84" />
                        </g>
                        <g id="Group-32" data-name="Group">
                            <path id="Vector-35" data-name="Vector"
                                d="M318.464,137.494a14.243,14.243,0,1,1,0,28.484.578.578,0,1,0,0,1.157,15.4,15.4,0,1,0,0-30.8.579.579,0,1,0,0,1.157Z"
                                fill="#fd9909" />
                        </g>
                        <g id="Group-33" data-name="Group">
                            <path id="Vector-36" data-name="Vector"
                                d="M318.46,165.978a14.243,14.243,0,1,1,0-28.484.579.579,0,1,0,0-1.157,15.4,15.4,0,1,0,0,30.8.578.578,0,1,0,0-1.157Z"
                                fill="#fd9909" />
                        </g>
                        <path id="Vector-37" data-name="Vector"
                            d="M320.3,166.85a.585.585,0,0,1,1.161-.142l.373,2.976c-.381.07-.767.128-1.156.175Zm2.782-.793a.577.577,0,0,1,.367-.734.585.585,0,0,1,.74.362l1.039,3.033q-.541.212-1.1.391Zm-14.792.906,1.625-2.644a.587.587,0,0,1,.8-.193.575.575,0,0,1,.2.795l-1.629,2.651Q308.781,167.283,308.294,166.964Zm22.658-6.825a.576.576,0,0,1-.122-.809.588.588,0,0,1,.817-.121l2.625,1.922q-.3.5-.636.974Zm-30.02-2.717,3.154-1.4a.588.588,0,0,1,.773.29.577.577,0,0,1-.293.765l-3.233,1.441Q301.116,157.975,300.933,157.422Zm31.861-8.692a.578.578,0,0,1,.433-.7l3.133-.731c.093.373.176.75.246,1.131l-3.109.726a.59.59,0,0,1-.134.015A.583.583,0,0,1,332.794,148.73Zm-27.433-4.513-2.767-1.792q.3-.5.627-.976l2.779,1.8a.575.575,0,0,1,.169.8.588.588,0,0,1-.808.167Zm1.241-2.423-2.344-1.706q.374-.448.777-.87l2.26,1.645a.574.574,0,0,1,.123.808.587.587,0,0,1-.816.123Zm20.61-1.646a.576.576,0,0,1-.1-.813l2.006-2.5q.477.335.932.7l-2.021,2.522a.589.589,0,0,1-.459.219A.583.583,0,0,1,327.212,140.148Zm-2.384-1.7a.576.576,0,0,1-.24-.783l1.4-2.608q.535.239,1.051.508l-1.425,2.645a.588.588,0,0,1-.791.239Zm-10.8-1.3-.828-2.921q.558-.165,1.13-.3l.823,2.9a.578.578,0,0,1-.406.713.59.59,0,0,1-.158.022A.581.581,0,0,1,314.023,137.15Z"
                            fill="#fd9909" />
                    </g>
                </g>
            </g>
            <g id="CROSSES">
                <path id="Vector-38" data-name="Vector"
                    d="M252.683,129.488v-2.88a.863.863,0,1,1,1.726,0v2.88h2.88a.863.863,0,1,1,0,1.726h-2.88v2.88a.863.863,0,1,1-1.726,0v-2.88H249.8a.863.863,0,1,1,0-1.726Z"
                    fill="#fd9500" />
                <g id="Group-34" data-name="Group">
                    <path id="Vector-39" data-name="Vector"
                        d="M111.884,162.159v-2.88a.863.863,0,1,1,1.726,0v2.88h2.879a.863.863,0,1,1,0,1.726h-2.879v2.88a.863.863,0,1,1-1.726,0v-2.88H109a.863.863,0,0,1,0-1.726Z"
                        fill="#fd9500" />
                </g>
                <g id="Group-35" data-name="Group">
                    <path id="Vector-40" data-name="Vector"
                        d="M309.052,191.679V188.8a.863.863,0,1,1,1.726,0v2.88h2.879a.863.863,0,1,1,0,1.726h-2.879v2.88a.863.863,0,1,1-1.726,0v-2.88h-2.881a.863.863,0,1,1,0-1.726Z"
                        fill="#fd9500" />
                </g>
            </g>
        </g>
    </g>
</svg>