<svg xmlns="http://www.w3.org/2000/svg" width="24" height="24" viewBox="0 0 24 24">
    <g id="_001-shop" data-name="001-shop" transform="translate(-1983 -1614)">
        <path id="Vector"
            d="M2004.649,1624.653a.692.692,0,0,0-.605-.115,2.091,2.091,0,0,1-.563.078,2.166,2.166,0,0,1-2.135-2.192.692.692,0,1,0-1.384,0,2.135,2.135,0,1,1-4.269,0,.692.692,0,1,0-1.385,0,2.136,2.136,0,1,1-4.27,0,.692.692,0,1,0-1.384,0,2.167,2.167,0,0,1-2.135,2.192,2.089,2.089,0,0,1-.563-.078.692.692,0,0,0-.879.667v9.1a.692.692,0,0,0,.692.692h18.462a.692.692,0,0,0,.692-.692v-9.1a.692.692,0,0,0-.274-.552Z"
            fill="#fcf2b6" />
        <path id="Vector-2" data-name="Vector"
            d="M2006.994,1622.229a.686.686,0,0,0-.108-.3l-1.609-2.475-.01-.016-1.267-1.949v-1.41a2.079,2.079,0,0,0-2.077-2.077h-13.846a2.079,2.079,0,0,0-2.077,2.077v1.41l-2.885,4.439a.7.7,0,0,0-.074.152.715.715,0,0,0-.038.229.692.692,0,0,0,.693.692h22.61a.692.692,0,0,0,.693-.692.653.653,0,0,0,0-.078Z"
            fill="#fdd835" />
        <path id="Vector-3" data-name="Vector"
            d="M2007,1622.283a.693.693,0,0,0-.692-.667h-22.611a.693.693,0,0,0-.692.667c0,.047,0,.093,0,.14a3.553,3.553,0,0,0,3.519,3.577,3.482,3.482,0,0,1,5.654,0,3.482,3.482,0,0,1,5.654,0,3.482,3.482,0,0,1,5.654,0,3.552,3.552,0,0,0,3.519-3.577c0-.047,0-.094,0-.14Z"
            fill="#ff3c7d" />
        <path id="Vector-4" data-name="Vector" d="M2001,1618.385h-12a.692.692,0,1,1,0-1.385h12a.692.692,0,1,1,0,1.385Z"
            fill="#ffa000" />
        <path id="Vector-5" data-name="Vector"
            d="M2004.649,1624.653a.692.692,0,0,0-.605-.115,2.091,2.091,0,0,1-.563.078,2.166,2.166,0,0,1-2.135-2.192.692.692,0,1,0-1.384,0,2.135,2.135,0,1,1-4.269,0,.692.692,0,0,0-.692-.692V1635h9.231a.692.692,0,0,0,.692-.692v-9.1a.692.692,0,0,0-.274-.552Z"
            fill="#ffde91" />
        <path id="Vector-6" data-name="Vector"
            d="M2006.993,1622.229a.7.7,0,0,0-.108-.3l-1.609-2.475-.01-.016-1.267-1.949v-1.41a2.079,2.079,0,0,0-2.077-2.077H1995v9h11.305a.692.692,0,0,0,.692-.692.652.652,0,0,0,0-.078Z"
            fill="#fbc02d" />
        <path id="Vector-7" data-name="Vector"
            d="M2007,1622.283a.693.693,0,0,0-.692-.667H1995v2.935a9.429,9.429,0,0,1,8.48,1.449,3.552,3.552,0,0,0,3.519-3.577c0-.047,0-.094,0-.14Z"
            fill="#d10050" />
        <path id="Vector-8" data-name="Vector" d="M2001,1617h-6v1.385h6a.692.692,0,1,0,0-1.385Z" fill="#ee8700" />
        <path id="Vector-9" data-name="Vector"
            d="M1992.23,1627.154h-1.846a2.079,2.079,0,0,0-2.077,2.077v5.077a.692.692,0,0,0,.692.692h4.615a.692.692,0,0,0,.693-.692v-5.077A2.079,2.079,0,0,0,1992.23,1627.154Z"
            fill="#ffa000" />
        <path id="Vector-10" data-name="Vector"
            d="M1992.23,1627.154h-.923V1635h2.308a.692.692,0,0,0,.693-.692v-5.077A2.079,2.079,0,0,0,1992.23,1627.154Z"
            fill="#ee8700" />
        <path id="Vector-11" data-name="Vector"
            d="M1999.615,1627.154h-1.846a2.077,2.077,0,1,0,0,4.154h1.846a2.077,2.077,0,1,0,0-4.154Z" fill="#fbc02d" />
        <path id="Vector-12" data-name="Vector"
            d="M2004.807,1633.615h-19.615a2.192,2.192,0,1,0,0,4.385h19.615a2.192,2.192,0,1,0,0-4.385Z" fill="#5f69e3" />
        <path id="Vector-13" data-name="Vector" d="M2004.807,1633.615H1995V1638h9.807a2.192,2.192,0,1,0,0-4.385Z"
            fill="#3440db" />
    </g>
</svg>