<svg xmlns="http://www.w3.org/2000/svg" width="32" height="32" viewBox="0 0 32 32">
    <g id="Barcode" transform="translate(-788 -1137)">
        <rect id="Rectangle_51" data-name="Rectangle 51" width="32" height="32" rx="5" transform="translate(788 1137)"
            fill="#f7f6ff" />
        <g id="barcode-scanner_1" data-name="barcode-scanner 1">
            <path id="Vector"
                d="M813.167,1149.667a.833.833,0,0,1-.833-.833V1145.5a.834.834,0,0,0-.833-.833h-3.333a.833.833,0,0,1,0-1.667H811.5a2.5,2.5,0,0,1,2.5,2.5v3.333A.833.833,0,0,1,813.167,1149.667Z"
                fill="#6f7081" />
            <path id="Vector-2" data-name="Vector"
                d="M811.5,1163h-3.333a.833.833,0,0,1,0-1.667H811.5a.834.834,0,0,0,.833-.833v-3.333a.833.833,0,0,1,1.667,0v3.333A2.5,2.5,0,0,1,811.5,1163Z"
                fill="#6f7081" />
            <path id="Vector-3" data-name="Vector"
                d="M799.833,1163H796.5a2.5,2.5,0,0,1-2.5-2.5v-3.333a.833.833,0,1,1,1.667,0v3.333a.834.834,0,0,0,.833.833h3.333a.833.833,0,1,1,0,1.667Z"
                fill="#6f7081" />
            <path id="Vector-4" data-name="Vector"
                d="M794.833,1149.667a.833.833,0,0,1-.833-.833V1145.5a2.5,2.5,0,0,1,2.5-2.5h3.333a.833.833,0,1,1,0,1.667H796.5a.834.834,0,0,0-.833.833v3.333A.833.833,0,0,1,794.833,1149.667Z"
                fill="#6f7081" />
            <path id="Vector-5" data-name="Vector"
                d="M809,1152.167a.833.833,0,0,1-.833-.833v-2.5h-8.333v2.5a.833.833,0,1,1-1.667,0v-2.5a1.668,1.668,0,0,1,1.667-1.667h8.333a1.668,1.668,0,0,1,1.667,1.667v2.5A.833.833,0,0,1,809,1152.167Z"
                fill="#6f7081" />
            <path id="Vector-6" data-name="Vector"
                d="M811.5,1154.667a.833.833,0,0,1-.833.833h-.833v1.667a1.668,1.668,0,0,1-1.667,1.667h-8.333a1.668,1.668,0,0,1-1.667-1.667V1155.5h-.833a.833.833,0,0,1,0-1.667h13.333A.833.833,0,0,1,811.5,1154.667Z"
                fill="#6f7081" />
        </g>
    </g>
</svg>