<svg xmlns="http://www.w3.org/2000/svg" width="42" height="42" viewBox="0 0 42 42">
    <g id="Group_49" data-name="Group 49" transform="translate(-1369 -727)">
        <g id="Group_13" data-name="Group 13">
            <rect id="Rectangle_14" data-name="Rectangle 14" width="42" height="42" rx="15"
                transform="translate(1369 727)" fill="#eeebff" />
        </g>
        <g id="badge_1" data-name="badge 1">
            <g id="Group">
                <g id="Group-2" data-name="Group">
                    <path id="Vector"
                        d="M1376.073,763.163h0a1.647,1.647,0,0,1-1.633-1.527l-.434-6.264a1.644,1.644,0,0,1,1.524-1.753l2.718-.19c.033,0,.068,0,.1,0a1.466,1.466,0,0,1,1.264.732l.161-.071a9.139,9.139,0,0,1,4-.937,11.835,11.835,0,0,1,3.421.55,6.753,6.753,0,0,0,1.53.243l6.31.078a1.317,1.317,0,0,1,.153-.009,1.525,1.525,0,0,1,1.469,1.395,1.553,1.553,0,0,1-1.32,1.7l-7.091.7a.4.4,0,0,0-.282.151.413.413,0,0,0-.085.315.406.406,0,0,0,.4.348h.026l.276-.013a50.392,50.392,0,0,0,8.042-.8,4.676,4.676,0,0,0,1.635-.7l.131-.088.017-.011.116-.078a38.363,38.363,0,0,1,4.071-2.461l.056-.031a6.2,6.2,0,0,1,2.1-.818l.059,0a1.27,1.27,0,0,1,1.2,1.391,1.548,1.548,0,0,1-.775,1.255l-9.034,5.482-.341.184a5.863,5.863,0,0,1-2.879.706,8.141,8.141,0,0,1-.871-.049l-11.943-.532a1.468,1.468,0,0,1-1.247.906l-2.718.19C1376.151,763.161,1376.111,763.163,1376.073,763.163Zm1.107-3.343a.93.93,0,1,0,.93.931A.931.931,0,0,0,1377.18,759.82Z"
                        fill="#759760" />
                    <path id="Vector-2" data-name="Vector"
                        d="M1397.949,754.623a2.906,2.906,0,0,1,.138.637,2.824,2.824,0,0,1,.006.525l.282-.2a39.814,39.814,0,0,1,3.874-2.291,9.169,9.169,0,0,1,1.024-.473,1.489,1.489,0,0,0-1.477-.131c-1.017.414-2.882,1.353-3.834,1.891A.1.1,0,0,1,1397.949,754.623Z"
                        fill="#759760" />
                    <path id="Vector-3" data-name="Vector"
                        d="M1399.361,751.951c-.623.256-2.029.729-2.652,1.07a2.947,2.947,0,0,1,.709.63c.039-.026.079-.059.125-.085l.453-.263c.67-.381,2.088-.9,2.824-1.241A1.468,1.468,0,0,0,1399.361,751.951Z"
                        fill="#759760" />
                    <path id="Vector-4" data-name="Vector"
                        d="M1391.258,751.467a1.112,1.112,0,0,1-.846-.448c-.408-.491-.846-1.03-1.339-1.648a.253.253,0,0,0-.2-.115.355.355,0,0,0-.1.017c-.261.075-.529.145-.788.212-.4.1-.81.212-1.208.339a1.273,1.273,0,0,1-.384.062,1.017,1.017,0,0,1-.729-.3,1.134,1.134,0,0,1-.32-.806c0-.453-.027-.913-.056-1.359v-.016c-.015-.221-.03-.449-.041-.673a.256.256,0,0,0-.2-.27c-.627-.231-1.288-.482-2.022-.768a1,1,0,0,1-.512-1.524c.335-.536.7-1.1,1.175-1.818a.271.271,0,0,0,0-.355c-.373-.56-.77-1.164-1.143-1.786a1.008,1.008,0,0,1,.5-1.576c.654-.258,1.328-.516,2-.768a.257.257,0,0,0,.19-.269l0-.051c.026-.685.052-1.391.1-2.09a.962.962,0,0,1,1.038-.982,2.132,2.132,0,0,1,.492.063l.559.15c.385.1.821.218,1.254.342a.477.477,0,0,0,.141.025.311.311,0,0,0,.253-.149c.314-.412.642-.818.96-1.21l.333-.412a1.1,1.1,0,0,1,.847-.448,1.088,1.088,0,0,1,.841.448l.1.121c.4.494.821,1,1.222,1.507a.28.28,0,0,0,.221.13.412.412,0,0,0,.113-.019c.519-.151,1.05-.293,1.565-.43l.071-.019.405-.108a1.321,1.321,0,0,1,.336-.045,1,1,0,0,1,1.017,1.03l0,.05c.038.671.077,1.365.11,2.064a.264.264,0,0,0,.2.276c.311.114.626.234.932.351s.665.254,1,.378a1.025,1.025,0,0,1,.552,1.641c-.4.619-.765,1.188-1.129,1.741a.271.271,0,0,0,0,.355c.257.381.513.774.76,1.154.135.208.269.414.4.618a1.083,1.083,0,0,1,.158.924,1.1,1.1,0,0,1-.677.665l-.1.038-.005,0c-.606.238-1.232.485-1.855.715a.276.276,0,0,0-.216.282c-.025.69-.064,1.388-.1,2.062v.012l0,.067a1.011,1.011,0,0,1-1.017,1.016,1.267,1.267,0,0,1-.329-.045c-.623-.164-1.357-.359-2.074-.558a.348.348,0,0,0-.094-.015.255.255,0,0,0-.2.12c-.447.567-.9,1.13-1.327,1.654A1.1,1.1,0,0,1,1391.258,751.467Zm-2.148-7.417c-.1,0-.145.092-.194.252-.069.227-.133.457-.2.68v.005l-.007.024c-.087.321-.052.4.249.545a4.406,4.406,0,0,0,1.228.347c.328.045.341.06.348.408.006.157.006.307.006.466a.276.276,0,0,0,.3.315c.114,0,.23,0,.345,0s.231,0,.345,0a.261.261,0,0,0,.283-.3c0-.069,0-.139,0-.208v-.009c0-.138,0-.281,0-.419a.339.339,0,0,1,.3-.381,2.329,2.329,0,0,0,1.2-.775,2.134,2.134,0,0,0,.447-1.759,2.265,2.265,0,0,0-1.149-1.544,11.251,11.251,0,0,0-1.028-.469l-.18-.075a2.735,2.735,0,0,1-.662-.374.6.6,0,0,1-.249-.545.622.622,0,0,1,.393-.479,1.075,1.075,0,0,1,.407-.086c.066,0,.133-.006.2-.006a2.977,2.977,0,0,1,1.332.308.482.482,0,0,0,.2.064c.091,0,.147-.066.2-.235s.11-.361.161-.539l.006-.021c.023-.08.046-.161.07-.242a.281.281,0,0,0-.184-.374,3.858,3.858,0,0,0-.966-.289c-.439-.072-.439-.072-.439-.512-.007-.617-.007-.617-.625-.617h-.269c-.292.007-.341.056-.348.348v.394c0,.381,0,.381-.356.512l-.018.007a2.081,2.081,0,0,0-1.517,1.924,1.945,1.945,0,0,0,1.11,1.884,6.8,6.8,0,0,0,.965.447l.005,0c.139.056.283.114.423.175a2.2,2.2,0,0,1,.506.3.69.69,0,0,1-.165,1.214,1.6,1.6,0,0,1-.652.134,1.939,1.939,0,0,1-.241-.015,3.94,3.94,0,0,1-1.359-.408A.494.494,0,0,0,1389.11,744.05Z"
                        fill="#759760" />
                </g>
            </g>
        </g>
    </g>
</svg>