<svg xmlns="http://www.w3.org/2000/svg" width="32" height="32" viewBox="0 0 32 32">
    <rect id="Rectangle_43" data-name="Rectangle 43" width="32" height="32" rx="5" fill="#676097" />
    <g id="COCO_Bold_Lock" data-name="COCO/Bold/Lock" transform="translate(-3080 -518)">
        <path id="Vector"
            d="M3096,543a13,13,0,0,1-2.97-.344,7.628,7.628,0,0,1-5.685-5.685,13.076,13.076,0,0,1,0-5.941,7.627,7.627,0,0,1,5.685-5.686,13.014,13.014,0,0,1,5.941,0,7.628,7.628,0,0,1,5.686,5.686,13.079,13.079,0,0,1,0,5.94,7.629,7.629,0,0,1-5.686,5.686A13,13,0,0,1,3096,543Zm0-13.4a2.968,2.968,0,0,0-2,5.161l-.534,1.641a1.532,1.532,0,0,0,1.457,2.005h2.151a1.531,1.531,0,0,0,1.456-2.005l-.533-1.641a2.968,2.968,0,0,0-2-5.161Zm1.076,7.659h-2.151a.383.383,0,0,1-.365-.5l.657-2.021a.578.578,0,0,0-.227-.655,1.819,1.819,0,1,1,2.019,0,.578.578,0,0,0-.227.655l.658,2.021a.383.383,0,0,1-.365.5Z"
            fill="#fff" />
    </g>
</svg>