<svg xmlns="http://www.w3.org/2000/svg" width="16" height="18" viewBox="0 0 16 18">
  <g id="COCO_Bold_Shield_-_check" data-name="COCO/Bold/Shield - check" transform="translate(-941 -1505)">
    <path id="Vector" d="M949,1523a5.621,5.621,0,0,1-2.434-.558,11.2,11.2,0,0,1-1.444-.923l-.251-.175-.032-.023c-.464-.324-.743-.52-.991-.727a7.637,7.637,0,0,1-2.617-4.546c-.055-.32-.085-.654-.137-1.266l-.031-.363a17.6,17.6,0,0,1,.028-3.262l.033-.322a5.965,5.965,0,0,1,3.311-4.774,10.328,10.328,0,0,1,9.13,0,5.969,5.969,0,0,1,3.311,4.774l.032.322a17.431,17.431,0,0,1,.028,3.262l-.031.363,0,.049c-.048.561-.077.9-.133,1.216a7.637,7.637,0,0,1-2.618,4.546c-.253.211-.54.412-1.015.745l-.007,0-.251.175-.014.01a11.2,11.2,0,0,1-1.43.913A5.621,5.621,0,0,1,949,1523Zm-2.515-9.906a.662.662,0,0,0-.473.2.681.681,0,0,0,0,.955l1.829,1.846a.663.663,0,0,0,.474.2h.01a.671.671,0,0,0,.477-.214l3.2-3.461a.68.68,0,0,0-.032-.954.664.664,0,0,0-.945.032l-2.728,2.951-1.339-1.353A.662.662,0,0,0,946.485,1513.094Z" fill="#363853"/>
  </g>
</svg>
