<svg xmlns="http://www.w3.org/2000/svg" width="24" height="24" viewBox="0 0 24 24">
    <g id="Group" transform="translate(-792 -763)">
        <rect id="Vector" width="24" height="24" transform="translate(792 763)" fill="none" />
        <path id="Vector-2" data-name="Vector"
            d="M805.919,784.6H802.08a.492.492,0,0,1-.481-.41l-.359-2.54a7.076,7.076,0,0,1-1.621-.94l-2.39.959a.546.546,0,0,1-.167.026.475.475,0,0,1-.424-.246l-1.92-3.32a.49.49,0,0,1,.12-.61l2.03-1.579a5.559,5.559,0,0,1,.02-1.88l-2.029-1.58a.455.455,0,0,1-.121-.61l1.91-3.32a.474.474,0,0,1,.42-.25.5.5,0,0,1,.171.03l2.39.96a7.242,7.242,0,0,1,1.62-.941l.36-2.54a.475.475,0,0,1,.47-.41h3.839a.482.482,0,0,1,.481.41l.36,2.54a7.057,7.057,0,0,1,1.62.941l2.39-.96a.546.546,0,0,1,.167-.026.473.473,0,0,1,.423.246l1.92,3.32a.488.488,0,0,1-.12.61l-2.03,1.58a5.728,5.728,0,0,1,.07.94,6.981,6.981,0,0,1-.06.94l2.011,1.579a.464.464,0,0,1,.12.61l-1.92,3.32a.471.471,0,0,1-.419.25.5.5,0,0,1-.171-.03l-2.39-.959a6.919,6.919,0,0,1-1.62.94l-.36,2.54A.468.468,0,0,1,805.919,784.6ZM804,771.4a3.6,3.6,0,1,0,3.6,3.6A3.6,3.6,0,0,0,804,771.4Z"
            fill="#d2d1df" />
    </g>
</svg>