<svg xmlns="http://www.w3.org/2000/svg" width="24" height="24" viewBox="0 0 24 24">
    <g id="settings" transform="translate(-3336 -763)">
        <g id="Group">
            <rect id="Vector" width="24" height="24" transform="translate(3336 763)" fill="none" />
            <path id="Vector-2" data-name="Vector"
                d="M3349.92,784.6h-3.84a.489.489,0,0,1-.48-.41l-.36-2.54a7.081,7.081,0,0,1-1.62-.94l-2.39.959a.548.548,0,0,1-.167.026.473.473,0,0,1-.423-.246l-1.921-3.32a.49.49,0,0,1,.121-.61l2.031-1.579a5.82,5.82,0,0,1-.07-.94,5.757,5.757,0,0,1,.09-.94l-2.031-1.58a.456.456,0,0,1-.12-.61l1.91-3.32a.472.472,0,0,1,.419-.25.5.5,0,0,1,.171.03l2.389.96a7.17,7.17,0,0,1,1.62-.941l.36-2.54a.475.475,0,0,1,.47-.41h3.84a.48.48,0,0,1,.48.41l.361,2.54a7.023,7.023,0,0,1,1.619.941l2.391-.96a.55.55,0,0,1,.167-.026.475.475,0,0,1,.424.246l1.92,3.32a.489.489,0,0,1-.121.61l-2.03,1.58a5.769,5.769,0,0,1,.071.94,7.155,7.155,0,0,1-.06.94l2.01,1.579a.464.464,0,0,1,.121.61l-1.921,3.32a.471.471,0,0,1-.419.25.5.5,0,0,1-.171-.03l-2.39-.959a6.9,6.9,0,0,1-1.621.94l-.36,2.54A.466.466,0,0,1,3349.92,784.6ZM3348,771.4a3.6,3.6,0,1,0,3.6,3.6A3.6,3.6,0,0,0,3348,771.4Z"
                fill="#676097" />
        </g>
    </g>
</svg>