<svg xmlns="http://www.w3.org/2000/svg" width="24" height="24" viewBox="0 0 24 24">
    <g id="_132-singapore_1" data-name="132-singapore 1" transform="translate(-1800 -542)">
        <circle id="Vector" cx="12" cy="12" r="12" transform="translate(1800 542)" fill="#f0f0f0" />
        <path id="Vector-2" data-name="Vector" d="M1800,554a12,12,0,1,1,24,0" fill="#d80027" />
        <g id="Group">
            <path id="Vector-3" data-name="Vector"
                d="M1807.3,548.261a3.653,3.653,0,0,1,2.87-3.567,3.652,3.652,0,1,0,0,7.135,3.653,3.653,0,0,1-2.87-3.567Z"
                fill="#f0f0f0" />
            <path id="Vector-4" data-name="Vector"
                d="M1812,544.869l.259.8h.838l-.678.493.259.8-.678-.493-.678.493.259-.8-.678-.493h.838Z"
                fill="#f0f0f0" />
            <path id="Vector-5" data-name="Vector"
                d="M1809.967,546.435l.259.8h.838l-.678.493.259.8-.678-.493-.678.493.259-.8-.678-.493h.838Z"
                fill="#f0f0f0" />
            <path id="Vector-6" data-name="Vector"
                d="M1814.033,546.435l.259.8h.838l-.678.493.259.8-.678-.493-.678.493.259-.8-.678-.493h.838Z"
                fill="#f0f0f0" />
            <path id="Vector-7" data-name="Vector"
                d="M1813.251,548.783l.259.8h.838l-.678.493.259.8-.678-.493-.678.493.259-.8-.678-.493h.838Z"
                fill="#f0f0f0" />
            <path id="Vector-8" data-name="Vector"
                d="M1810.749,548.783l.259.8h.838l-.678.493.259.8-.678-.493-.678.493.259-.8-.678-.493h.838Z"
                fill="#f0f0f0" />
        </g>
    </g>
</svg>