<svg xmlns="http://www.w3.org/2000/svg" width="32" height="32" viewBox="0 0 32 32">
    <rect id="Rectangle_40" data-name="Rectangle 40" width="32" height="32" rx="5" fill="#6eadc0" />
    <g id="COCO_Bold_Message" data-name="COCO/Bold/Message" transform="translate(-3080 -287)">
        <path id="Vector"
            d="M3096,312a14.43,14.43,0,0,1-3.115-.341l-.454-.1a7.352,7.352,0,0,1-5.545-5.407,13.124,13.124,0,0,1,0-6.3,7.351,7.351,0,0,1,5.545-5.407l.454-.1a14.379,14.379,0,0,1,6.231,0l.455.1a7.352,7.352,0,0,1,5.545,5.407,13.124,13.124,0,0,1,0,6.3,7.352,7.352,0,0,1-5.545,5.407l-.455.1A14.434,14.434,0,0,1,3096,312Zm-3.848-11.31a.66.66,0,0,0-.384,1.2l2.571,1.837a2.859,2.859,0,0,0,3.323,0l2.571-1.837a.66.66,0,1,0-.767-1.074l-2.57,1.836a1.54,1.54,0,0,1-1.79,0l-2.57-1.836A.652.652,0,0,0,3092.152,300.69Z"
            fill="#fff" />
    </g>
</svg>