<svg xmlns="http://www.w3.org/2000/svg" width="32" height="32" viewBox="0 0 32 32">
    <rect id="Rectangle_45" data-name="Rectangle 45" width="32" height="32" rx="5" fill="#ff83a1" />
    <g id="COCO_Bold_Report" data-name="COCO/Bold/Report" transform="translate(-3080 -695)">
        <path id="Vector"
            d="M3100.3,714.336h-9.623v4.845a.84.84,0,0,1-1.68,0V702.818a.829.829,0,0,1,.84-.818H3100.3a2.661,2.661,0,0,1,2.371,1.482,2.927,2.927,0,0,1-.061,2.8l-.5.877a2.064,2.064,0,0,0,0,2.021l.5.877a2.927,2.927,0,0,1,.061,2.8A2.661,2.661,0,0,1,3100.3,714.336Z"
            fill="#fff" />
    </g>
</svg>