<svg xmlns="http://www.w3.org/2000/svg" width="19.406" height="20.306" viewBox="0 0 19.406 20.306">
    <g id="COCO_Line_Add" data-name="COCO/Line/Add" transform="translate(-1170.994 -97.497)">
        <path id="Vector"
            d="M1172.268,104.725a7.323,7.323,0,0,1,5.457-5.456c3.99-.459,1.955-.459,0,0,10.767,2.749,8.653.635,5.945,0,5.915,9.447,5.915,7.412,5.457,5.456-.635,8.653-2.749,10.767-5.457,11.4-3.99.459-1.955.459,0,0-10.767-2.749-8.653-.635-5.945,0-5.915-9.447-5.915-7.412-5.457-5.456"
            fill="none" stroke="#fda325" stroke-width="2.193" />
        <path id="Vector-2" data-name="Vector" d="M1178.26,107.7h4.874c-2.437-2.437-2.437,2.437-2.437,2.437" fill="none"
            stroke="#fda325" stroke-width="2.193" />
    </g>
</svg>