<svg xmlns="http://www.w3.org/2000/svg" width="42" height="42" viewBox="0 0 42 42">
    <g id="Icon" transform="translate(-1369 -131)">
        <rect id="Rectangle_12" data-name="Rectangle 12" width="42" height="42" rx="15" transform="translate(1369 131)"
            fill="#d8f2fa" />
        <g id="COCO_Bold_Add" data-name="COCO/Bold/Add">
            <path id="Vector"
                d="M1390,164a17.36,17.36,0,0,1-3.96-.458,10.172,10.172,0,0,1-7.582-7.582,17.433,17.433,0,0,1,0-7.921,10.172,10.172,0,0,1,7.582-7.581,17.34,17.34,0,0,1,7.921,0,10.173,10.173,0,0,1,7.582,7.581,17.456,17.456,0,0,1,0,7.921,10.173,10.173,0,0,1-7.582,7.582A17.37,17.37,0,0,1,1390,164Zm-3.191-12.8a.8.8,0,0,0,0,1.6h2.391v2.39a.8.8,0,1,0,1.6,0V152.8h2.391a.8.8,0,0,0,0-1.6H1390.8v-2.391a.8.8,0,1,0-1.6,0V151.2Z"
                fill="#6eadc0" />
        </g>
    </g>
</svg>