<svg xmlns="http://www.w3.org/2000/svg" width="15.878" height="32" viewBox="0 0 15.878 32">
    <g id="_005-train-2" data-name="005-train-2" transform="translate(-1905.061 -1767)">
        <path id="Vector" d="M1919.5,1799l-4.09-14.747h-4.134l-4.09,14.747-1.439-.256,4.348-15.67h6.5l4.348,15.67Z"
            fill="#2f4859" />
        <path id="Vector-2" data-name="Vector"
            d="M1917.336,1774.049h-8.781c-1.93,0-3.494,1.252-3.494,2.8v12.486c0,1.544,1.564,2.8,3.494,2.8h8.781c1.93,0,3.494-1.252,3.494-2.8v-12.486C1920.831,1775.3,1919.266,1774.049,1917.336,1774.049Z"
            fill="#d15241" />
        <path id="Vector-3" data-name="Vector"
            d="M1908.279,1774.049c-1.777,0-3.218,1.153-3.218,2.575v12.927c0,1.422,1.441,2.575,3.218,2.575h4.667v-18.077Z"
            fill="#e56353" />
        <g id="Group">
            <rect id="Vector-4" data-name="Vector" width="5.3" height="4.49" transform="translate(1907.54 1778.14)"
                fill="#27a2db" />
            <rect id="Vector-5" data-name="Vector" width="5.3" height="4.49" transform="translate(1913.85 1778.14)"
                fill="#27a2db" />
        </g>
        <rect id="Vector-6" data-name="Vector" width="11.6" height="1.38" transform="translate(1907.54 1775.23)"
            fill="#fcd462" />
        <g id="Group-2" data-name="Group">
            <ellipse id="Vector-7" data-name="Vector" cx="1.51" cy="1.88" rx="1.51" ry="1.88"
                transform="translate(1915.75 1786.45)" fill="#d5d6db" />
            <ellipse id="Vector-8" data-name="Vector" cx="1.51" cy="1.88" rx="1.51" ry="1.88"
                transform="translate(1907.15 1786.45)" fill="#d5d6db" />
        </g>
        <path id="Vector-9" data-name="Vector"
            d="M1911.486,1770.882s-1.014-2.013,2-2.305c.366-.035,1.16-1.6,3.252-.579,0,0,1.949-1.838,3.384-.526,0,0,1.684,2.41-2.8,1.921,0,0-.075,1.953-2.791.633,0,0-1.177,1.763-2.324,1.808"
            fill="#64798a" />
        <g id="Group-3" data-name="Group">
            <path id="Vector-10" data-name="Vector" d="M1915.468,1774.05h-4.748l-1.187-3.308h7.123Z" fill="#2f4859" />
            <rect id="Vector-11" data-name="Vector" width="11.21" height="1.18" transform="translate(1907.74 1793.7)"
                fill="#2f4859" />
            <rect id="Vector-12" data-name="Vector" width="12.99" height="1.18" transform="translate(1907.23 1796.38)"
                fill="#2f4859" />
        </g>
    </g>
</svg>