<svg xmlns="http://www.w3.org/2000/svg" width="32" height="32" viewBox="0 0 32 32">
  <g id="Group_2" data-name="Group 2" transform="translate(-2251 -423)">
    <rect id="Rectangle_24" data-name="Rectangle 24" width="32" height="32" rx="5" transform="translate(2251 423)" fill="#6eadc0"/>
    <g id="COCO_Bold_Dollar" data-name="COCO/Bold/Dollar">
      <path id="Vector" d="M2267,448a14.1,14.1,0,0,1-3.031-.33l-.418-.093a7.508,7.508,0,0,1-5.674-5.508,12.74,12.74,0,0,1,0-6.138,7.509,7.509,0,0,1,5.674-5.509l.418-.092a14.05,14.05,0,0,1,6.062,0l.417.092a7.508,7.508,0,0,1,5.675,5.509,12.716,12.716,0,0,1,0,6.138,7.507,7.507,0,0,1-5.675,5.508l-.417.093A14.1,14.1,0,0,1,2267,448Zm-2.024-8.139a.606.606,0,0,0-.607.6,2.018,2.018,0,0,0,1.956,2.07h.067v.5a.607.607,0,0,0,1.214,0v-.5h.241a1.836,1.836,0,0,0,1.783-1.882,1.878,1.878,0,0,0-1.2-1.78l-.82-.3v-1.9h.068a.807.807,0,0,1,.742.86.607.607,0,0,0,1.214,0,2.018,2.018,0,0,0-1.957-2.07h-.068v-.494a.607.607,0,0,0-1.214,0v.494h-.24a1.836,1.836,0,0,0-1.783,1.882,1.876,1.876,0,0,0,1.2,1.78l.82.3v1.9h-.067a.807.807,0,0,1-.742-.861A.607.607,0,0,0,2264.976,439.861Zm2.872,1.466h-.241v-1.463l.406.147a.672.672,0,0,1,.4.643A.626.626,0,0,1,2267.848,441.327Zm-1.455-3.19h0l-.4-.146a.675.675,0,0,1-.4-.644.626.626,0,0,1,.569-.672h.24v1.462Z" fill="#fff"/>
    </g>
  </g>
</svg>
