<svg xmlns="http://www.w3.org/2000/svg" width="42" height="14" viewBox="0 0 42 14">
  <path id="cardish_visa" data-name="cardish/visa" d="M20.319,13.236l.509-3.037c1.4,1.157,5.655,1.486,5.655-.349s-4.74-1.878-4.74-5.373C21.743.764,25.782,0,27.482,0a9.668,9.668,0,0,1,3.083.59l-.489,2.905c-1.467-.831-4.8-1.027-4.8.5s4.783,1.856,4.783,5.373c0,3.386-3.529,4.63-5.867,4.63A9.384,9.384,0,0,1,20.319,13.236Zm18.534.531-.4-2.01H34.095l-.715,2.01H29.808L34.919,1.249A1.58,1.58,0,0,1,36.5.242h2.755L42,13.767ZM35.082,8.983H37.9L36.883,3.921Zm-20.3,4.784L16.922.242H20.35L18.207,13.767Zm-8.219,0L3.585,2.017A12.629,12.629,0,0,0,0,.471L.063.242h5.4A1.481,1.481,0,0,1,7.09,1.46L8.244,7.542h0l.387,2L11.9.242h3.688L10.133,13.767Z" fill="#fafafa"/>
</svg>
