<svg xmlns="http://www.w3.org/2000/svg" width="46.001" height="14.941" viewBox="0 0 46.001 14.941">
    <g id="visa-seeklogo.com_1" data-name="visa-seeklogo.com 1" transform="translate(-743 -239)">
        <g id="Group">
            <path id="Vector"
                d="M765.257,253.173l.673-3.165.073.034a7.648,7.648,0,0,0,3.6.879h.143c1.1-.018,2.214-.462,2.226-1.415.005-.634-.482-1.087-1.929-1.8-1.409-.69-3.279-1.85-3.253-3.933.021-2.812,2.6-4.776,6.279-4.776a9.881,9.881,0,0,1,3.479.643l-.653,3.063a7.249,7.249,0,0,0-3.028-.684,4.9,4.9,0,0,0-.637.038c-1.147.149-1.566.745-1.578,1.21-.014.684.842,1.137,1.835,1.661,1.508.8,3.383,1.786,3.374,4.067-.014,3-2.555,4.944-6.472,4.944A11.105,11.105,0,0,1,765.257,253.173Zm14.311.543h-3.9l5.576-13.39a1.689,1.689,0,0,1,1.581-1.06H786l3,14.45h-3.439l-.45-2.157h-4.767l-.776,2.157h0Zm1.847-5.121H784.5l-1.126-5.427Zm-22.429,5.12,3.075-14.45h3.715l-3.073,14.45Zm-8.471,0-2.965-11.532a1.582,1.582,0,0,0-.883-1.27A15.429,15.429,0,0,0,743,239.684l.089-.419h6.324a1.736,1.736,0,0,1,1.715,1.472l1.565,8.364,3.869-9.836h3.9l-6.023,14.45Z"
                fill="#fff" />
        </g>
    </g>
</svg>