<svg xmlns="http://www.w3.org/2000/svg" width="20" height="20" viewBox="0 0 20 20">
  <g id="move_to_inbox" transform="translate(-1113 -249)">
    <rect id="Vector" width="20" height="20" transform="translate(1113 249)" fill="none"/>
    <path id="Vector-2" data-name="Vector" d="M1128.833,266.5h-11.675a1.665,1.665,0,0,1-1.659-1.667V253.166a1.665,1.665,0,0,1,1.659-1.667h11.675a1.669,1.669,0,0,1,1.667,1.667v11.667A1.669,1.669,0,0,1,1128.833,266.5Zm-10.841-13.333a.834.834,0,0,0-.833.833v7.5h2.616a.869.869,0,0,1,.817.667,2.5,2.5,0,0,0,4.817,0,.867.867,0,0,1,.816-.667h2.608V254a.834.834,0,0,0-.833-.833ZM1123,260.5a.418.418,0,0,1-.3-.126l-3.041-3.041h1.667v-2.5h3.333v2.5h1.667l-3.033,3.041A.416.416,0,0,1,1123,260.5Z" fill="#2f253d"/>
  </g>
</svg>
