<svg xmlns="http://www.w3.org/2000/svg" width="17.999" height="18" viewBox="0 0 17.999 18">
  <g id="COCO_Bold_Edit_-_2" data-name="COCO/Bold/Edit - 2" transform="translate(-940 -1692)">
    <path id="Vector" d="M941.424,1710a1.431,1.431,0,0,1-1.38-1.777l.252-1.009a18.726,18.726,0,0,1,4.923-8.695l5.223-5.222a4.428,4.428,0,0,1,6.261,6.262l-5.222,5.222a18.718,18.718,0,0,1-8.694,4.923l-1.01.252A1.456,1.456,0,0,1,941.424,1710Zm12.148-16a2.412,2.412,0,0,0-1.717.711l-.8.8a2.967,2.967,0,0,0,1.021,2.413,3.225,3.225,0,0,0,2.134,1.044,1.629,1.629,0,0,0,.279-.023l.8-.8a2.428,2.428,0,0,0-1.716-4.144Z" fill="#363853"/>
  </g>
</svg>
